<?xml version="1.0" encoding="utf-8"?>
<!-- Generator: Adobe Illustrator 25.4.1, SVG Export Plug-In . SVG Version: 6.00 Build 0)  -->
<svg version="1.1" id="Layer_1" xmlns="http://www.w3.org/2000/svg" xmlns:xlink="http://www.w3.org/1999/xlink" x="0px" y="0px"
	 viewBox="0 0 612 792" style="enable-background:new 0 0 612 792;" xml:space="preserve">
<style type="text/css">
	.st0{fill:#E23838;}
	.st1{fill:#34405B;}
	.st2{fill:#25271D;}
	.st3{fill:#D7D9CB;}
	.st4{fill:#313130;}
	.st5{fill:#F4D549;}
	.st6{fill:#EB8165;}
	.st7{fill:#F39676;}
	.st8{fill:#153253;}
	.st9{fill:#A696C7;}
	.st10{fill:#C0E2ED;}
	.st11{fill:#FAB510;}
	.st12{fill:#57458F;}
	.st13{fill:#F18516;}
	.st14{fill:#FFFFFF;}
	.st15{fill:#BBB1D8;}
	.st16{fill:#FAB40E;}
	.st17{fill:#5676B9;}
	.st18{fill:#314B9B;}
	.st19{fill:#232953;}
	.st20{fill:#2A4180;}
	.st21{fill:#E71A84;}
	.st22{fill:#EC5F5D;}
	.st23{fill:#D87762;}
	.st24{fill:#013236;}
</style>
<g>
	<path class="st0" d="M365.35,172.76c-19.02,10.3-350.57,151.6-309.06,168.84c41.51,17.24,111.84-36.22,111.84-8.63
		c0,27.6-209.94,98.9-146.17,121.88c63.77,22.97,107.65-81.4,134.41-54.64C183.12,426.97,49,468.63,56.15,503.4
		c7.15,34.76,184.02-114.42,184.02-82.07c0,32.35-80.06,42.01-45.9,76.18c34.17,34.16,203.54-78.19,203.54-102.39
		c0-24.2-83.59-20.93-43.34-61.18c40.25-40.25,96.79-78.37,51.96-88.8c-44.83-10.43,26.75-58.61,26.75-81.07
		C433.18,141.58,365.35,172.76,365.35,172.76z"/>
	<g>
		<path class="st1" d="M424.9,138.39h-74.38v10l32.96,13.79l-1.44,31.5l3.31,0.15l1.43-31.35l38.12-10.84V138.39z M421.59,149.14
			l-36.13,10.27l-31.62-13.23v-4.48h67.76V149.14z"/>
		<path class="st2" d="M418.32,142.63h-60.91c-1.57,0-2.84-1.27-2.84-2.84l0,0c0-1.57,1.27-2.84,2.84-2.84h60.91
			c1.57,0,2.84,1.27,2.84,2.84v0C421.16,141.36,419.89,142.63,418.32,142.63z"/>
		<rect x="358.5" y="134.04" class="st3" width="59.45" height="11.07"/>
		<g>
			<path class="st4" d="M365.06,134.04c-1.92,3.02-4.01,6.83-5.63,11.07h1.91c1.72-4.3,3.92-8.13,5.84-11.07H365.06z"/>
			<path class="st4" d="M373.28,134.04c-1.92,3.02-4.01,6.83-5.63,11.07h1.9c1.72-4.3,3.92-8.13,5.84-11.07H373.28z"/>
			<path class="st4" d="M381.49,134.04c-1.92,3.02-4.01,6.83-5.63,11.07h1.91c1.72-4.3,3.92-8.13,5.84-11.07H381.49z"/>
			<path class="st4" d="M389.7,134.04c-1.92,3.02-4.01,6.83-5.63,11.07h1.91c1.72-4.3,3.92-8.13,5.84-11.07H389.7z"/>
			<path class="st4" d="M397.92,134.04c-1.92,3.02-4.01,6.83-5.63,11.07h1.91c1.71-4.3,3.92-8.13,5.84-11.07H397.92z"/>
			<path class="st4" d="M406.13,134.04c-1.92,3.02-4.01,6.83-5.63,11.07h1.9c1.72-4.3,3.92-8.13,5.84-11.07H406.13z"/>
			<path class="st4" d="M414.35,134.04c-1.92,3.02-4.01,6.83-5.63,11.07h1.9c1.72-4.3,3.92-8.13,5.84-11.07H414.35z"/>
		</g>
		<g>
			<path class="st5" d="M358.14,134.04h0.29C358.23,134.03,358.14,134.04,358.14,134.04z"/>
			<path class="st5" d="M415.11,139.57c3.2-0.44,2.84-4.59,2.84-5.54c0-0.95-0.73,0-3.61,0c-2.88,0-25.83-0.51-27.87-0.51
				c-2.04,0-4.99,0.51-6.34-0.29c-1.35-0.8-21.64,0.8-21.64,0.8h-0.08c0.58,0.02,2.05,0.14,4.3,0.87c2.98,0.97,6.56,1.38,9.9,0.17
				c3.35-1.21,5.76,0.85,5.76,0.85s0.52,2.52,0.8,3.28c0.28,0.76,1.45-0.2,1.45-0.2s-1.16,2.25,0.96,2.67
				c2.12,0.43-0.15-5.1,2.84-5.9c2.99-0.8,8.82,0.95,8.82,0.95c3.64,1.24,7.21,2.62,7.94,1.89c0.73-0.73,3-1.35,5.32-0.44
				c2.32,0.92,1.72,3.25,2.2,2.77c0.48-0.48,0.39-3.17,1.66-1.9c1.28,1.28,1.29,4.32,2.21,5.25c0.93,0.93,0.63-2.19,1.07-0.87
				c0.44,1.31-2.33,13.48,0.73,13.48C417.44,156.91,411.91,140.01,415.11,139.57z"/>
		</g>
		<g>
			<g>
				<g>
					<path class="st5" d="M184.5,195.6l-53.58-53.58c-1.05-1.05-1.05-2.74,0-3.79l0,0c1.05-1.05,2.74-1.05,3.79,0l53.58,53.58
						c1.05,1.05,1.05,2.74,0,3.79l0,0C187.24,196.65,185.55,196.65,184.5,195.6z"/>
				</g>
				<g>
					<path class="st5" d="M177.33,169.31l-20.11-20.11c-1.05-1.05-1.05-2.74,0-3.79l0,0c1.05-1.05,2.74-1.05,3.79,0l20.11,20.11
						c1.05,1.05,1.05,2.74,0,3.79l0,0C180.07,170.36,178.38,170.36,177.33,169.31z"/>
				</g>
				<g>
					<path class="st5" d="M184.5,214.72l-72.7-72.7c-1.05-1.05-1.05-2.74,0-3.79l0,0c1.05-1.05,2.74-1.05,3.79,0l72.7,72.7
						c1.05,1.05,1.05,2.74,0,3.79l0,0C187.24,215.77,185.55,215.77,184.5,214.72z"/>
				</g>
				<g>
					<path class="st5" d="M180.52,229.85l-83.84-83.84c-1.05-1.05-1.05-2.74,0-3.79l0,0c1.05-1.05,2.74-1.05,3.79,0l83.84,83.84
						c1.05,1.05,1.05,2.74,0,3.79l0,0C183.26,230.89,181.56,230.89,180.52,229.85z"/>
				</g>
				<g>
					<path class="st5" d="M173.97,242.42l-89.87-89.87c-1.05-1.05-1.05-2.74,0-3.79l0,0c1.05-1.05,2.74-1.05,3.79,0l89.87,89.87
						c1.05,1.05,1.05,2.74,0,3.79l0,0C176.71,243.47,175.02,243.47,173.97,242.42z"/>
				</g>
				<g>
					<path class="st5" d="M165.37,252.95l-91.8-91.8c-1.05-1.05-1.05-2.74,0-3.79l0,0c1.05-1.05,2.74-1.05,3.79,0l91.8,91.8
						c1.05,1.05,1.05,2.74,0,3.79l0,0C168.11,254,166.42,254,165.37,252.95z"/>
				</g>
				<g>
					<path class="st5" d="M154.84,261.55l-89.87-89.87c-1.05-1.05-1.05-2.74,0-3.79l0,0c1.05-1.05,2.74-1.05,3.79,0l89.87,89.87
						c1.05,1.05,1.05,2.74,0,3.79l0,0C157.58,262.6,155.89,262.6,154.84,261.55z"/>
				</g>
				<g>
					<path class="st5" d="M142.27,268.1l-83.84-83.84c-1.05-1.05-1.05-2.74,0-3.79l0,0c1.05-1.05,2.74-1.05,3.79,0l83.84,83.84
						c1.05,1.05,1.05,2.74,0,3.79l0,0C145.01,269.14,143.31,269.14,142.27,268.1z"/>
				</g>
				<g>
					<path class="st5" d="M127.14,272.08l-72.7-72.7c-1.05-1.05-1.05-2.74,0-3.79l0,0c1.05-1.04,2.74-1.04,3.78,0l72.7,72.7
						c1.05,1.05,1.05,2.74,0,3.79l0,0C129.88,273.13,128.18,273.13,127.14,272.08z"/>
				</g>
				<g>
					<path class="st5" d="M108.02,272.08l-53.58-53.58c-1.05-1.05-1.05-2.74,0-3.79l0,0c1.05-1.05,2.74-1.05,3.78,0l53.58,53.58
						c1.05,1.05,1.05,2.74,0,3.79l0,0C110.76,273.13,109.07,273.13,108.02,272.08z"/>
				</g>
				<g>
					<path class="st5" d="M81.73,264.91L61.62,244.8c-1.05-1.05-1.05-2.74,0-3.79l0,0c1.04-1.05,2.74-1.05,3.79,0l20.11,20.11
						c1.05,1.05,1.05,2.74,0,3.79l0,0C84.47,265.96,82.78,265.96,81.73,264.91z"/>
				</g>
			</g>
			<path class="st5" d="M143.96,386.27c6.35,0,11.51,5.16,11.51,11.51c0,6.35-5.16,11.51-11.51,11.51s-11.51-5.16-11.51-11.51
				C132.45,391.43,137.61,386.27,143.96,386.27L143.96,386.27z M143.96,380.85c-9.35,0-16.93,7.58-16.93,16.93
				c0,9.35,7.58,16.93,16.93,16.93c9.35,0,16.93-7.58,16.93-16.93C160.88,388.43,153.31,380.85,143.96,380.85L143.96,380.85z"/>
			<path class="st6" d="M275.61,332.79c-0.47-0.47-4.55-6.48-5.42-5.6c-0.87,0.87,3.61,6.41,3.61,6.41s-5.2-5.26-6.23-4.23
				c-1.03,1.03,6.95,8.13,7.79,8.13C276.21,337.5,275.61,332.79,275.61,332.79z"/>
			<path class="st7" d="M282.66,326.85c-0.07-0.13-3.14-3.73-7.2-9.01c-1.3-1.69-2.71-3.56-4.15-5.54c-2,1.68-3.89,3.66-6,5.32
				c1.71,2.09,3.26,4.01,4.54,5.64l0,0c1.41,1.84,2.39,3.25,2.74,4.05c2.43,5.44,2.78,10.18,2.78,10.18s4.92-0.17,6.02-1.27
				c1.1-1.1,0.23-2.78,1.85-4.4C284.86,330.21,282.66,326.85,282.66,326.85z"/>
			<g>
				<ellipse class="st2" cx="330.27" cy="623.2" rx="268.88" ry="15.28"/>
				<path class="st8" d="M272.71,597.52l-2.59,21.01c0,0,5.75,0,16.38,0c10.63,0,27.3-1.51,27.3-1.51s-24.99-8.29-24.99-17.47
					c0-9.18,0-9.18,0-9.18L272.71,597.52z"/>
				<path class="st8" d="M364.55,598.23c-1.42-3.74-5.34-11.6-5.34-11.6l-12.64,3.74l-2.59,21.8c0,0,37.36,0,43.11,0
					C387.09,612.17,365.97,601.96,364.55,598.23z"/>
				<g>
					<path class="st9" d="M154.53,557.27c0,0-2.19,55.62-2.19,55.73c0,2.97-16.82,5.38-37.58,5.38c-5.77,0-11.23-0.19-16.11-0.52
						C85.96,617,77.19,615.15,77.19,613c0-0.11-2.73-69.25-2.74-69.38h80.64L154.53,557.27z"/>
					<path class="st10" d="M150.63,553.78c-15.86,2.17-43.55,2.87-63.38,1.18c-3.89-0.33-7.47-0.75-10.61-1.27
						c-11.57-1.92-13-4.22-7.08-10.27c-0.12,0.19-0.19,0.38-0.19,0.57c0,2.26,8.42,4.24,21.1,5.37c7.02,0.62,15.36,0.98,24.3,0.98
						c25.08,0,45.4-2.84,45.4-6.35c0-0.41-0.28-0.81-0.8-1.19h0.07C169.82,550.48,156.69,552.95,150.63,553.78z"/>
					<path class="st11" d="M69.36,544c0,3.51,20.33,6.35,45.4,6.35c25.07,0,45.4-2.84,45.4-6.35c0-0.49-0.1-0.81-0.84-1.26
						c-1.26-0.66-2.6-1.17-4.08-1.62c-7.5-2.06-22.81-3.47-40.48-3.47C89.69,537.65,69.36,540.49,69.36,544z"/>
					<path class="st12" d="M155.09,543.58c0,1.11-3.13,2.13-8.39,2.95c-7.37,1.15-18.94,1.88-31.93,1.88c-0.59,0-1.18,0-1.76-0.01
						c-12.19-0.06-22.96-0.77-30.01-1.85c-5.35-0.82-8.54-1.85-8.54-2.97c0-2.6,17.1-4.72,38.55-4.83c0.59,0,1.17-0.01,1.76-0.01
						C137.03,538.74,155.09,540.91,155.09,543.58z"/>
					<path class="st13" d="M146.7,546.53c-2.3,0.36-5.01,0.67-8.05,0.94h0c-6.68,0.59-14.94,0.94-23.88,0.94
						c-8.9,0-17.12-0.34-23.79-0.93c-3-0.27-5.69-0.58-7.98-0.93c7.37-1.15,18.93-1.88,31.93-1.88
						C127.83,544.67,139.32,545.4,146.7,546.53z"/>
					<rect x="86.98" y="566.51" class="st14" width="59.71" height="33.08"/>
					<rect x="118.44" y="572.35" class="st15" width="25.51" height="2.23"/>
					<rect x="119.31" y="576.68" class="st15" width="25.51" height="2.23"/>
					<rect x="120.18" y="581.94" class="st15" width="25.51" height="2.23"/>
					<path class="st11" d="M70.26,546.54c0,0-5.43,1.84-2.84,4.44c2.6,2.6-2.15,12.32,1.07,15.53c3.22,3.21,2.55-13.91,4.45-13.52
						c1.9,0.39-1.34,9.65,2.26,9.65c3.61,0,2.46-10.15,4.54-8.07c2.08,2.08,0.75,7.13,3.26,6.2c2.5-0.93,2.3-5.97,3.28-5.89
						c0.97,0.09,4.62-2.91,0.72-3.9C83.08,549.99,82.34,542.91,70.26,546.54z"/>
					<path class="st11" d="M98.87,553.34c0,0,9.97-4.65,12.26-2.36c2.29,2.29,12.33,4.82,10.22,4.82c-2.11,0-12.64,0.1-14.13,0.07
						C105.74,555.85,97.02,557.61,98.87,553.34z"/>
					<path class="st11" d="M145.69,548.41c0,0,3.16-0.5,3.16,1.93c0,2.43,3.16,1.11,3.16,4.22c0,3.12-1.76,15.31,2.09,13.63
						c3.85-1.67,0.32-14.92,1.81-14.92c1.49,0-0.56,3.77,2.42,3.77c2.97,0,2.66-4.16,2.66-6.07c0-1.92-3.13-7.17-7.64-5.99
						C148.83,546.17,145.69,546.65,145.69,548.41z"/>
					<path class="st11" d="M66.72,613.34c0,0-18.92,2.65-11.22,5.04C63.2,620.78,74.33,613.34,66.72,613.34z"/>
					<rect x="91.81" y="572.35" class="st16" width="18.32" height="20.26"/>
				</g>
				<g>
					<path class="st9" d="M248.04,561.22c0,0-1.87,47.62-1.87,47.71c0,2.54-14.4,4.61-32.17,4.61c-4.94,0-9.62-0.16-13.79-0.45
						c-10.87-0.74-18.38-2.33-18.38-4.16c0-0.1-2.34-59.28-2.34-59.4h69.03L248.04,561.22z"/>
					<path class="st10" d="M244.7,558.23c-13.58,1.86-37.28,2.46-54.26,1.01c-3.33-0.28-6.4-0.64-9.08-1.09
						c-9.91-1.64-11.13-3.62-6.07-8.79c-0.11,0.16-0.16,0.32-0.16,0.49c0,1.93,7.21,3.63,18.07,4.59c6.01,0.53,13.15,0.84,20.8,0.84
						c21.47,0,38.87-2.43,38.87-5.44c0-0.35-0.24-0.69-0.69-1.02h0.06C261.13,555.41,249.89,557.52,244.7,558.23z"/>
					<path class="st17" d="M175.12,549.86c0,3,17.4,5.44,38.87,5.44c21.47,0,38.87-2.43,38.87-5.44c0-0.42-0.09-0.69-0.72-1.08
						c-1.07-0.57-2.22-1.01-3.49-1.38c-6.42-1.76-19.53-2.97-34.66-2.97C192.53,544.42,175.12,546.85,175.12,549.86z"/>
					<path class="st12" d="M248.52,549.5c0,0.95-2.68,1.83-7.18,2.53c-6.31,0.98-16.21,1.61-27.34,1.61c-0.51,0-1.01,0-1.51-0.01
						c-10.43-0.05-19.66-0.66-25.69-1.59c-4.58-0.7-7.31-1.59-7.31-2.55c0-2.23,14.64-4.04,33.01-4.13c0.5,0,1.01-0.01,1.51-0.01
						C233.06,545.36,248.52,547.21,248.52,549.5z"/>
					<path class="st18" d="M241.33,552.02c-1.97,0.31-4.29,0.58-6.9,0.81h0c-5.72,0.5-12.79,0.8-20.44,0.8
						c-7.62,0-14.66-0.3-20.37-0.8c-2.57-0.23-4.87-0.49-6.83-0.79c6.31-0.98,16.21-1.61,27.34-1.61
						C225.18,550.43,235.02,551.05,241.33,552.02z"/>
					<rect x="190.21" y="569.13" class="st14" width="51.12" height="28.32"/>
					<rect x="217.14" y="574.13" class="st15" width="21.84" height="1.91"/>
					<rect x="217.89" y="577.84" class="st15" width="21.84" height="1.91"/>
					<rect x="218.63" y="582.34" class="st15" width="21.84" height="1.91"/>
					<path class="st17" d="M200.39,557.85c0,0,8.53-3.98,10.5-2.02c1.96,1.96,10.56,4.13,8.75,4.13c-1.8,0-10.82,0.08-12.09,0.06
						C206.27,560,198.8,561.51,200.39,557.85z"/>
					<path class="st17" d="M240.47,553.64c0,0,2.7-0.43,2.7,1.66c0,2.08,2.7,0.95,2.7,3.61c0,2.67-1.5,13.11,1.79,11.67
						c3.3-1.43,0.27-12.78,1.55-12.78c1.27,0-0.48,3.23,2.07,3.23c2.54,0,2.28-3.56,2.28-5.2c0-1.64-2.68-6.14-6.54-5.13
						C243.16,551.71,240.47,552.12,240.47,553.64z"/>
					<rect x="194.35" y="574.13" class="st17" width="15.68" height="17.35"/>
				</g>
				<g>
					<polygon class="st19" points="324.28,321.72 363.22,590.66 343.75,594.1 292.59,413.06 303.38,318.33 					"/>
					<path class="st20" d="M286.25,320.05c0,0-15.18,19.43-18.76,38.98c-3.59,19.54-4.87,120.12-4.87,120.12l-4.35,21.62
						l10.39,102.05l25.58-4.17c0,0,9.86-167.79,17.92-201.7c8.07-33.91,6.06-41.96,6.06-41.96l-1.22-30.4L286.25,320.05z"/>
					<path class="st5" d="M297.11,423.83c0,0,2.17-7.33-2.49-7.33c-4.66,0-7.17,24.17-5.04,26.29
						C291.71,444.92,297.11,423.83,297.11,423.83z"/>
					<path class="st5" d="M284.63,359.79c0,0-4.56,15.04-1.16,22.36c3.39,7.33,0.21-10.83,4.98-15.6
						c4.77-4.77,2.89-21.47,2.89-27.08c0-5.6-2.33,2.09-5.75,5.5c-3.41,3.41-6.87-1.64-6.87,5.48
						C278.73,357.59,284.63,359.79,284.63,359.79z"/>
					<g>
						<path class="st6" d="M368.27,248.49c3.99-5.87,13.35-9.98,13.35-9.98c1.01-0.48,5.11-0.21,4.93,1.08
							c-0.19,1.3-2.73,0.31-4.86,2.48c-2.13,2.17-0.73,2.75,0.28,2.89c1.01,0.15,5.53,4.19,5.33,5.55c-0.2,1.36-0.99,1.32-1.2,2.78
							c-0.21,1.46-1.92,3.03-4.92,4.62c-3,1.59-10.23,1.29-12.27,2.82c-0.39,0.29-3.52,2.81-6.6,5.3c-1.69-1.85-4.13-3.34-4.21-6.22
							C361.66,256.96,364.92,253.42,368.27,248.49z"/>
						<g>
							
								<rect x="161.57" y="394.47" transform="matrix(0.0493 -0.9988 0.9988 0.0493 -41.9833 751.4449)" class="st4" width="424.32" height="6.62"/>
						</g>
						<path class="st7" d="M387.18,249.68c0,0-11.85-1.86-12.19,0.45c-0.33,2.3,10.92,2.49,10.92,2.49s-10.82-1.46-11.09,0.43
							c-0.27,1.89,8.96,3.24,8.96,3.24s-8.97-1.99-8.78-0.58c0.2,1.42,8.93,3.15,8.93,3.15s1.92-0.55,1.31-1.93
							c-0.44-1.01,0.33-1.28,0.75-1.84c0.42-0.56,0.71-1.84,0.79-2.37C386.85,252.21,388.69,250.65,387.18,249.68z"/>
						<g>
							<path class="st19" d="M314.21,221.3c0,0,6.7,58.45,12.54,58.45c5.84,0,31.35-23.61,31.35-23.61l7.83,9.89
								c0,0-29.6,43.28-46.55,35.66c-16.96-7.62-15.98-61.65-15.98-61.65L314.21,221.3z"/>
							<path class="st21" d="M314.21,223.39c0,0-8.5-6.54-37.27-0.04c-0.78,0.18-1.5,31.4-1.5,31.4s13.35,52.26,10.81,65.3
								c0,0,15.26,12.88,38.03,1.67c0,0-2.96-41.04-0.89-50.18c2.07-9.14,6.2-17.43,0.34-26.92
								C317.86,235.13,314.21,223.39,314.21,223.39z"/>
							<path class="st20" d="M314.21,221.3c0,0-8.5-5.63-37.27,0.86c-0.78,0.18-1.5,32.58-1.5,32.58s13.35,52.26,10.81,65.3
								c0,0,15.2,50.65,30.57,48.38c3.98-0.59,8.24-41.34,7.46-46.72c0,0-2.96-41.04-0.89-50.18c2.07-9.14,6.2-17.43,0.34-26.92
								C317.86,235.13,314.21,221.3,314.21,221.3z"/>
							<path class="st20" d="M255.15,277.75c2.79-12.32,19.02-19.34,21.8-25.42c2.85-6.25,0.53-30.31,0.53-30.31
								c-12.07-0.81-39.84,50.67-39.14,58.43c0.49,5.42,14.32,27.78,24.6,40.35c2.11-1.66,6.36-6.82,8.36-8.5
								C262.96,300.86,253.37,285.6,255.15,277.75z"/>
							<path class="st20" d="M277.48,222.02c0.43,5.29,0.24,11.73,0.34,17.13c0.09,9.53-0.48,12.53-2.59,14.92
								c-4.88,5.66-17.95,12.57-20.09,23.68c3.04-11.01,15.68-17.14,20.78-23.08c1.93-2.22,2.3-4.59,2.54-7.6
								C278.98,240.03,278.56,229.1,277.48,222.02z"/>
							<path class="st4" d="M306.11,226.43c2.55,19.29,4.95,38.59,7.17,57.92c1.09,9.66,2.16,19.33,3.06,29.02
								c0.85,9.69,1.83,19.38,1.75,29.16c0,0.21-0.17,0.37-0.38,0.37c-0.21,0-0.37-0.17-0.37-0.37v-0.03
								c-0.01-9.67-1.06-19.37-1.99-29.04c-0.98-9.67-2.13-19.32-3.3-28.97c-2.37-19.3-4.94-38.57-7.65-57.82
								c-0.07-0.47,0.26-0.91,0.73-0.98c0.47-0.07,0.91,0.26,0.98,0.73L306.11,226.43z"/>
							<path class="st5" d="M269.11,235.43c0,0-5.45,12.84-3.74,13.1c1.71,0.25-0.09,5.08,0.39,9.36c0.48,4.28,2.55-8.83,4.38-10.19
								c1.83-1.36,2.52-1.29,3.38-7.11c0.87-5.83,2.48-16.63,0.29-13.61C271.61,229.99,269.11,235.43,269.11,235.43z"/>
							<path class="st5" d="M284.22,244.61c0,0-3.26,4.2-1.2,4.2C285.08,248.8,286.37,244.61,284.22,244.61z"/>
							<path class="st5" d="M285.22,239.09L285.22,239.09c-0.76,0-1.39-0.62-1.39-1.39l0,0c0-0.76,0.62-1.39,1.39-1.39l0,0
								c0.76,0,1.39,0.62,1.39,1.39l0,0C286.61,238.46,285.98,239.09,285.22,239.09z"/>
							<path class="st5" d="M287.08,233.68L287.08,233.68c-0.26,0-0.48-0.21-0.48-0.48l0,0c0-0.26,0.22-0.48,0.48-0.48l0,0
								c0.26,0,0.48,0.21,0.48,0.48l0,0C287.56,233.46,287.35,233.68,287.08,233.68z"/>
							<path class="st22" d="M302.73,187.92c0,1.13-1.51,2.04-3.37,2.04c-1.86,0-3.37-0.91-3.37-2.04c0-1.13,1.51-2.04,3.37-2.04
								C301.22,185.87,302.73,186.79,302.73,187.92z"/>
							<path class="st22" d="M315.53,187.92c0,1.13-1.51,2.04-3.37,2.04c-1.86,0-3.37-0.91-3.37-2.04c0-1.13,1.51-2.04,3.37-2.04
								C314.02,185.87,315.53,186.79,315.53,187.92z"/>
							<path class="st2" d="M288.45,195.07c-0.77,0.76-4.62,2.39-4.62,6.01c0,3.62,5.1,7.14,2.74,8.27
								c-2.36,1.14-3.81-0.62-3.81,4.45c0,5.07,3.84,7.71,3.84,7.71s5.88,0.77,8.68-2.02c2.79-2.79-0.87-5.07,0.7-8.07
								c1.57-3,4.34-4.48,3.37-7.41c-0.43-1.3-2.31-3.77-4.63-5.49C291.84,196.37,288.45,195.07,288.45,195.07z"/>
							<path class="st2" d="M286.57,162.78c2.1-2.1,10.62-2.6,10.62-2.6h0.63c2.67-1.02,16.78,19.96,15,31.14
								c-1.78,11.19-3.05,10.04-11.06,11.44c-8.01,1.4-13.98-4.58-16.01-11.19C283.73,184.97,284.47,164.88,286.57,162.78z"/>
							<path class="st7" d="M309.52,198.57c0.57,0.57-1.74,17.09,0.55,21.66c0,0-0.42,8.36-4.51,8.85
								c-3.56,0.42-10.01-3.79-10.72-7.06c-0.95-4.39,0-26.31,0-26.31L309.52,198.57z"/>
							<path class="st6" d="M309.29,205.41c-5.43,4.91-10.55,2.68-14.67-3.48c0.09-3.1,0.22-6.04,0.22-6.21l14.68,2.86
								C309.76,198.81,309.5,201.73,309.29,205.41z"/>
							<path class="st7" d="M307.81,161.46c0,0,6.88,1.31,7.7,7.21c0.82,5.9,1.97,10.81,0.82,17.69
								c-1.15,6.88-5.24,16.05-11.96,17.52c-6.71,1.47-13.76-9.66-13.76-15.72c0-6.06-2.46-16.21,2.13-22.44
								C297.33,159.5,307.81,161.46,307.81,161.46z"/>
							<path class="st6" d="M307.81,161.46c0,0,6.88,1.31,7.7,7.21c0.74,5.35,1.75,9.88,1.08,15.81c-1.09-0.76-2.65-1.52-4.84-2.24
								c-7.51-2.47-14.22-16.99-14.5-17.6l-0.12-0.26l-0.02-0.28c-0.04-0.57,0.04-1.18,0.21-1.78
								C302.14,160.4,307.81,161.46,307.81,161.46z"/>
							<path class="st2" d="M292.41,184.72c0,0-2.62-3.03-3.93-4.34c-1.31-1.31-4.59-14.25-1.31-18.67
								c3.28-4.42,9.54-4.67,14.56-5.24c5.01-0.57,12.97,3.24,13.41,10.71c0,0-12.9-4.9-16.51-3.18c-3.6,1.72-5.08,3.77-5.81,7.78
								C292.08,175.79,292.41,184.72,292.41,184.72z"/>
							<path class="st6" d="M292.41,184.72c0,0-1.75-7.6-4.67-5.77c-2.92,1.84,0.22,10.26,2.93,10.26
								C293.4,189.21,292.41,184.72,292.41,184.72z"/>
							<path class="st23" d="M289.58,180.55c0,0,4.31,6.91,1.35,6.15C287.97,185.94,286.81,179.27,289.58,180.55z"/>
							<g>
								<path class="st2" d="M307.87,189.22c-0.18-1.88-0.31-3.77-0.29-5.66c0.42,2.4,0.52,4.15,0.66,5.9
									c-1,0.27-2.2,0.83-3.71,0.26C305.68,189.94,306.82,189.61,307.87,189.22z"/>
							</g>
							<path class="st2" d="M304.15,183.38c-0.34-1.08-1.27-2.12-2.53-2.46c-2.25-0.59-3.62,2.65-5.16,2.62
								c1.11,0.57,2.88-1.32,4.09-1.81c0.66-0.27,1.24-0.08,1.89,0.23C303.08,182.28,303.64,182.79,304.15,183.38z"/>
							<path class="st2" d="M300.08,182.41c0,0.68,0.49,1.24,1.09,1.24c0.6,0,1.09-0.55,1.09-1.24c0-0.68-0.49-1.24-1.09-1.24
								C300.57,181.17,300.08,181.72,300.08,182.41z"/>
							<path class="st2" d="M309.14,184.08c0.39-1.07,1.36-2.06,2.64-2.34c2.27-0.49,3.5,2.81,5.04,2.85
								c-1.13,0.51-2.81-1.45-4.01-1.99c-0.65-0.3-1.24-0.14-1.9,0.14C310.26,183.04,309.68,183.52,309.14,184.08z"/>
							<path class="st2" d="M313.25,183.29c-0.03,0.68-0.54,1.21-1.15,1.19c-0.6-0.03-1.07-0.6-1.04-1.28
								c0.03-0.68,0.54-1.21,1.15-1.19C312.82,182.04,313.28,182.61,313.25,183.29z"/>
							<path class="st2" d="M304.95,178.14c0.24-0.16-1.72-2.13-4.07-2.35c-2.35-0.22-4.89,2.35-4.89,2.35s3.46-2.07,4.93-1.4
								C302.37,177.41,303.59,179.02,304.95,178.14z"/>
							<g>
								<path class="st2" d="M308.19,195.96c0.25-0.04,0.19-0.42-0.06-0.38c-0.04,0-3.9,0.53-7.12-2.01
									c-0.2-0.15-0.43,0.14-0.24,0.3C302.96,195.59,306.07,196.28,308.19,195.96z"/>
							</g>
							<g>
								<path class="st2" d="M305.31,197.21c0.1,0,0.18-0.08,0.19-0.18c0.04-0.47-2.81-0.13-3.87-1.87
									c-0.13-0.22-0.46-0.02-0.33,0.2c0.98,1.6,3.87,1.84,3.99,1.84C305.3,197.21,305.3,197.21,305.31,197.21z"/>
							</g>
							<path class="st2" d="M308.44,157.82c6.31,1.39,8.21,11.09,13.37,16.25c5.16,5.16,3.85,12.61,1.39,17.52
								c-2.46,4.91-6.4,1.72-6.4,1.72s2.06,1.15,3.37-2.95c1.31-4.09-0.98-7.29-7.94-9.58c-6.96-2.29-13.59-16.79-13.59-16.79
								C298.46,161.17,302.14,156.43,308.44,157.82z"/>
							<path class="st24" d="M316.81,193.32c2.39,1.39,5.76-4.46,3.3-8.28c-1.79-2.96-5.71-4.2-8.84-5.5
								c-4.97-2.85-9.74-10.72-12.63-15.54c2.1,5.74,6.54,13.7,11.9,16.87l1.29,0.56c1.32,0.53,5.36,1.62,7.31,4.24
								c1.57,2.06,0.82,5.26-0.22,6.78C318.47,193.11,317.66,193.62,316.81,193.32z"/>
							<path class="st2" d="M287.08,212.87c0,0-4.32-1.38-4.32,3.1c0,4.48,7.41,8.83,6.52,8.83c-0.9,0-5.02-0.07-4.06,3.04
								c0.96,3.1,8.41,5.36,8.41,5.36s4.28-5.84,3.52-8.6c-0.76-2.76-3.12-0.97-3.12-0.97s3.76-5.81,1.96-8.46
								C294.18,212.53,287.08,212.87,287.08,212.87z"/>
							<path class="st2" d="M304.39,246.7c0,0-4.43-7.17-10.77-13.5c0,0-4.05,8.12-1.04,17.64c3.01,9.52,1.14,15.72,1.14,15.72
								s6.52-3,6.52-9.21c0,0,1.73,4.65,1.02,8.69C301.27,266.04,307.3,253.43,304.39,246.7z"/>
						</g>
					</g>
				</g>
			</g>
		</g>
	</g>
</g>
</svg>
