<svg xmlns="http://www.w3.org/2000/svg" viewBox="0 0 1453.42 1246.76"><defs><style>.cls-1{fill:#f3d548;}.cls-2{fill:#e13737;}.cls-3{fill:#33405a;}.cls-4{fill:#ea8063;}.cls-5{fill:#30302f;}.cls-6{fill:#25271c;}.cls-7{fill:#d6d8ca;}.cls-8{fill:#f79674;}.cls-9{fill:#0d3153;}.cls-10{fill:#a695c6;}.cls-11{fill:#c0e2ed;}.cls-12{fill:#f9b406;}.cls-13{fill:#56448e;}.cls-14{fill:#fb8603;}.cls-15{fill:#fff;}.cls-16{fill:#c0b4fe;}.cls-17{fill:#fab300;}.cls-18{fill:#4f80ff;}.cls-19{fill:#2f499f;}.cls-20{fill:#0f1d5b;}.cls-21{fill:#ee0085;}.cls-22{fill:#2a417f;}.cls-23{fill:#fd5e5a;}.cls-24{fill:#d87761;}.cls-25{fill:#003135;}</style></defs><g id="Layer_2" data-name="Layer 2"><g id="_Layer_" data-name="&lt;Layer&gt;"><path class="cls-1" d="M430.68,154.38,298.53,22.23a6.59,6.59,0,0,1,0-9.33h0a6.59,6.59,0,0,1,9.33,0L440,145.05a6.61,6.61,0,0,1,0,9.33h0A6.6,6.6,0,0,1,430.68,154.38Z"/><path class="cls-1" d="M413,89.54,363.38,39.92a6.59,6.59,0,0,1,0-9.33h0a6.59,6.59,0,0,1,9.33,0L422.32,80.2a6.6,6.6,0,0,1,0,9.34h0A6.61,6.61,0,0,1,413,89.54Z"/><path class="cls-1" d="M430.68,201.54,251.37,22.23a6.59,6.59,0,0,1,0-9.33h0a6.6,6.6,0,0,1,9.34,0L440,192.2a6.62,6.62,0,0,1,0,9.34h0A6.6,6.6,0,0,1,430.68,201.54Z"/><path class="cls-1" d="M420.84,238.85,214.06,32.07a6.6,6.6,0,0,1,0-9.34h0a6.61,6.61,0,0,1,9.33,0L430.18,229.52a6.59,6.59,0,0,1,0,9.33h0A6.6,6.6,0,0,1,420.84,238.85Z"/><path class="cls-1" d="M404.7,269.87,183.05,48.21a6.6,6.6,0,0,1,0-9.34h0a6.59,6.59,0,0,1,9.33,0L414,260.53a6.6,6.6,0,0,1,0,9.34h0A6.62,6.62,0,0,1,404.7,269.87Z"/><path class="cls-1" d="M383.49,295.84,157.07,69.42a6.6,6.6,0,0,1,0-9.34h0a6.6,6.6,0,0,1,9.34,0L392.83,286.51a6.59,6.59,0,0,1,0,9.33h0A6.6,6.6,0,0,1,383.49,295.84Z"/><path class="cls-1" d="M357.52,317.05,135.86,95.4a6.6,6.6,0,0,1,0-9.34h0a6.6,6.6,0,0,1,9.34,0L366.85,307.71a6.6,6.6,0,0,1,0,9.34h0A6.59,6.59,0,0,1,357.52,317.05Z"/><path class="cls-1" d="M326.5,333.19,119.72,126.41a6.6,6.6,0,0,1,0-9.34h0a6.6,6.6,0,0,1,9.34,0L335.84,323.85a6.6,6.6,0,0,1,0,9.34h0A6.6,6.6,0,0,1,326.5,333.19Z"/><path class="cls-1" d="M289.19,343,109.88,163.72a6.62,6.62,0,0,1,0-9.34h0a6.62,6.62,0,0,1,9.34,0L298.53,333.69a6.6,6.6,0,0,1,0,9.34h0A6.6,6.6,0,0,1,289.19,343Z"/><path class="cls-1" d="M242,343,109.88,210.88a6.62,6.62,0,0,1,0-9.34h0a6.6,6.6,0,0,1,9.34,0L251.37,333.69a6.6,6.6,0,0,1,0,9.34h0A6.59,6.59,0,0,1,242,343Z"/><path class="cls-1" d="M177.19,325.34l-49.61-49.61a6.6,6.6,0,0,1,0-9.34h0a6.59,6.59,0,0,1,9.33,0L186.52,316a6.6,6.6,0,0,1,0,9.34h0A6.61,6.61,0,0,1,177.19,325.34Z"/><path class="cls-2" d="M876.73,98C829.81,123.44,12,472,114.42,514.48s275.85-89.35,275.85-21.28-517.82,244-360.53,300.61S295.26,593,361.26,659,96.47,827.81,114.11,913.57,568,631.35,568,711.13,370.5,814.76,454.77,899s502-192.85,502-252.54-206.18-51.63-106.9-150.91,238.74-193.31,128.16-219,66-144.55,66-200S876.73,98,876.73,98Z"/><path class="cls-1" d="M330.67,624.66a28.39,28.39,0,1,1-28.39,28.39,28.41,28.41,0,0,1,28.39-28.39Zm0-13.36a41.75,41.75,0,1,0,41.75,41.75,41.75,41.75,0,0,0-41.75-41.75Z"/><path class="cls-3" d="M1023.62,13.27H840.16V37.94l81.3,34-3.56,77.7,8.16.38,3.54-77.34,94-26.73Zm-8.17,26.52L926.33,65.13l-78-32.63V21.44h167.12Z"/><path class="cls-4" d="M884,284.84c9.83-14.48,32.91-24.61,32.91-24.61,2.51-1.18,12.62-.52,12.16,2.68s-6.74.75-12,6.11-1.79,6.78.7,7.14,13.64,10.33,13.16,13.68-2.45,3.26-3,6.86-4.75,7.47-12.15,11.39-25.23,3.19-30.26,7c-1,.71-8.68,6.93-16.28,13.08-4.16-4.56-10.19-8.25-10.38-15.33C867.63,305.73,875.69,297,884,284.84Z"/><rect class="cls-5" x="374.11" y="644.88" width="1046.6" height="16.33" transform="translate(200.92 1517.18) rotate(-87.17)"/><rect class="cls-6" x="850.14" y="9.72" width="164.26" height="14.02" rx="6.57"/><rect class="cls-7" x="859.84" y="2.53" width="146.64" height="27.31"/><path class="cls-5" d="M876,2.53a155.5,155.5,0,0,0-13.88,27.31h4.7A157.47,157.47,0,0,1,881.26,2.53Z"/><path class="cls-5" d="M896.29,2.53a155.5,155.5,0,0,0-13.88,27.31h4.7A157.47,157.47,0,0,1,901.52,2.53Z"/><path class="cls-5" d="M916.55,2.53a154.82,154.82,0,0,0-13.88,27.31h4.7a157.48,157.48,0,0,1,14.4-27.31Z"/><path class="cls-5" d="M936.81,2.53a154.15,154.15,0,0,0-13.88,27.31h4.7A156.79,156.79,0,0,1,942,2.53Z"/><path class="cls-5" d="M957.07,2.53a154.82,154.82,0,0,0-13.89,27.31h4.7A157.47,157.47,0,0,1,962.29,2.53Z"/><path class="cls-5" d="M977.33,2.53a154.82,154.82,0,0,0-13.89,27.31h4.7A157.47,157.47,0,0,1,982.55,2.53Z"/><path class="cls-5" d="M997.59,2.53A154.82,154.82,0,0,0,983.7,29.84h4.7a157.47,157.47,0,0,1,14.41-27.31Z"/><path class="cls-1" d="M858.94,2.53h0Z"/><path class="cls-1" d="M999.48,16.19c7.9-1.08,7-11.32,7-13.66s-1.8,0-8.9,0-63.71-1.26-68.74-1.26-12.3,1.26-15.63-.72-53.38,2-53.38,2h-.19a39.11,39.11,0,0,1,10.62,2.16c7.35,2.39,16.17,3.41,24.42.42A14.9,14.9,0,0,1,908.9,7.2s1.3,6.22,2,8.09,3.57-.49,3.57-.49-2.86,5.55,2.36,6.6-.36-12.58,7-14.56,21.74,2.34,21.74,2.34c9,3.05,17.79,6.47,19.59,4.67s7.41-3.33,13.12-1.08,4.24,8,5.43,6.83.95-7.81,4.09-4.67,3.18,10.66,5.46,12.94,1.56-5.39,2.63-2.15S990.13,59,997.68,59,991.57,17.27,999.48,16.19Z"/><path class="cls-8" d="M930.59,287.77s-29.23-4.57-30.06,1.11,27,6.15,27,6.15-26.69-3.6-27.36,1.06,22.1,8,22.1,8-22.14-4.91-21.65-1.42,22,7.77,22,7.77,4.74-1.35,3.23-4.76c-1.1-2.49.8-3.17,1.84-4.54s1.75-4.53,1.94-5.83S934.3,290.16,930.59,287.77Z"/><ellipse class="cls-6" cx="790.22" cy="1209.07" rx="663.21" ry="37.69"/><path class="cls-9" d="M648.25,1145.72l-6.39,51.81h40.41c26.22,0,67.34-3.73,67.34-3.73S688,1173.36,688,1150.71v-22.64Z"/><path class="cls-9" d="M874.77,1147.46c-3.5-9.22-13.17-28.61-13.17-28.61l-31.19,9.22L824,1181.85H930.36S878.27,1156.67,874.77,1147.46Z"/><path class="cls-10" d="M356.75,1046.44s-5.39,137.19-5.39,137.46c0,7.34-41.49,13.28-92.69,13.28-14.22,0-27.7-.45-39.74-1.28-31.31-2.13-53-6.7-53-12,0-.27-6.74-170.8-6.75-171.13H358.12Z"/><path class="cls-11" d="M347.12,1037.84c-39.12,5.35-107.42,7.08-156.34,2.92-9.59-.81-18.43-1.85-26.17-3.14-28.53-4.72-32.05-10.41-17.47-25.33a2.62,2.62,0,0,0-.46,1.41c0,5.57,20.75,10.46,52,13.24,17.32,1.53,37.88,2.43,59.93,2.43,61.85,0,112-7,112-15.67,0-1-.68-2-2-2.94h.17C394.46,1029.7,362.07,1035.79,347.12,1037.84Z"/><path class="cls-12" d="M146.68,1013.71c0,8.65,50.14,15.66,112,15.66s112-7,112-15.66c0-1.2-.25-2-2.07-3.12a55.49,55.49,0,0,0-10.06-4C340,1001.53,302.24,998,258.66,998,196.82,998,146.68,1005.06,146.68,1013.71Z"/><path class="cls-13" d="M358.12,1012.67c0,2.74-7.71,5.27-20.69,7.28-18.19,2.83-46.71,4.65-78.76,4.65l-4.35,0c-30.06-.15-56.65-1.9-74-4.57-13.19-2-21.07-4.57-21.07-7.34,0-6.41,42.18-11.64,95.09-11.91h4.35C313.6,1000.75,358.12,1006.08,358.12,1012.67Z"/><path class="cls-14" d="M337.43,1020c-5.68.87-12.37,1.66-19.86,2.32h0c-16.49,1.46-36.85,2.32-58.89,2.32s-42.24-.85-58.69-2.3c-7.4-.65-14-1.42-19.68-2.29,18.19-2.82,46.7-4.64,78.76-4.64C290.89,1015.37,319.23,1017.16,337.43,1020Z"/><rect class="cls-15" x="190.15" y="1069.24" width="147.28" height="81.6"/><rect class="cls-16" x="267.74" y="1083.63" width="62.93" height="5.5"/><rect class="cls-16" x="269.88" y="1094.33" width="62.93" height="5.5"/><rect class="cls-16" x="272.02" y="1107.29" width="62.93" height="5.5"/><path class="cls-12" d="M148.9,1020s-13.4,4.54-7,11-5.29,30.38,2.64,38.31,6.29-34.31,11-33.36-3.32,23.82,5.57,23.82,6.07-25,11.19-19.92,1.85,17.58,8,15.29,5.68-14.74,8.08-14.53,11.39-7.17,1.77-9.61S178.69,1011,148.9,1020Z"/><path class="cls-12" d="M219.47,1036.74s24.59-11.47,30.25-5.81,30.41,11.88,25.21,11.88-31.17.24-34.84.18S214.89,1047.28,219.47,1036.74Z"/><path class="cls-12" d="M335,1024.6s7.79-1.23,7.79,4.77,7.79,2.73,7.79,10.41-4.34,37.75,5.16,33.62.8-36.8,4.46-36.8-1.37,9.31,6,9.31,6.57-10.25,6.57-15-7.72-17.68-18.86-14.78S335,1020.24,335,1024.6Z"/><path class="cls-12" d="M140.17,1184.75s-46.67,6.54-27.68,12.43S158.93,1184.75,140.17,1184.75Z"/><rect class="cls-17" x="202.06" y="1083.63" width="45.18" height="49.97"/><path class="cls-10" d="M587.39,1056.18s-4.61,117.45-4.61,117.68c0,6.28-35.53,11.37-79.36,11.37-12.17,0-23.72-.39-34-1.1-26.81-1.82-45.33-5.74-45.33-10.27,0-.23-5.77-146.22-5.78-146.51H588.56Z"/><path class="cls-11" d="M579.14,1048.81c-33.49,4.59-92,6.06-133.84,2.5-8.21-.69-15.78-1.58-22.4-2.68-24.43-4.05-27.44-8.92-15-21.69a2.21,2.21,0,0,0-.4,1.21c0,4.77,17.77,8.95,44.56,11.33,14.84,1.32,32.44,2.08,51.31,2.08,52.95,0,95.87-6,95.87-13.41a3.37,3.37,0,0,0-1.69-2.52h.14C619.68,1041.84,591.94,1047.06,579.14,1048.81Z"/><path class="cls-18" d="M407.54,1028.15c0,7.41,42.92,13.41,95.87,13.41s95.87-6,95.87-13.41c0-1-.22-1.7-1.78-2.66a46.85,46.85,0,0,0-8.6-3.41c-15.85-4.36-48.18-7.34-85.49-7.34C450.46,1014.74,407.54,1020.75,407.54,1028.15Z"/><path class="cls-13" d="M588.56,1027.27c0,2.34-6.6,4.51-17.71,6.23-15.57,2.42-40,4-67.43,4l-3.73,0c-25.73-.13-48.49-1.62-63.36-3.91-11.3-1.73-18-3.91-18-6.28,0-5.49,36.11-10,81.4-10.2h3.73C550.44,1017.06,588.56,1021.63,588.56,1027.27Z"/><path class="cls-19" d="M570.85,1033.5c-4.86.75-10.59,1.43-17,2h0c-14.12,1.24-31.55,2-50.42,2s-36.15-.74-50.24-2c-6.34-.56-12-1.22-16.85-2,15.57-2.42,40-4,67.43-4C531,1029.57,555.27,1031.11,570.85,1033.5Z"/><rect class="cls-15" x="444.76" y="1075.69" width="126.09" height="69.86"/><rect class="cls-16" x="511.19" y="1088.02" width="53.88" height="4.71"/><rect class="cls-16" x="513.02" y="1097.17" width="53.88" height="4.71"/><rect class="cls-16" x="514.85" y="1108.27" width="53.88" height="4.7"/><path class="cls-18" d="M469.86,1047.87s21.05-9.81,25.9-5,26,10.17,21.58,10.17-26.68.2-29.83.16S465.94,1056.89,469.86,1047.87Z"/><path class="cls-18" d="M568.73,1037.48s6.66-1,6.66,4.08,6.67,2.34,6.67,8.92-3.71,32.32,4.43,28.78.67-31.51,3.81-31.51-1.18,8,5.1,8S601,1047,601,1042.9s-6.6-15.14-16.14-12.66S568.73,1033.75,568.73,1037.48Z"/><rect class="cls-18" x="454.96" y="1088.02" width="38.68" height="42.78"/><path class="cls-20" d="M750.6,217.78S767.11,362,781.52,362s77.32-58.23,77.32-58.23l19.31,24.4s-73,106.75-114.83,88S723.89,264,723.89,264Z"/><polygon class="cls-20" points="775.44 465.46 871.48 1128.79 823.46 1137.29 697.26 690.74 723.89 457.09 775.44 465.46"/><path class="cls-21" d="M750.6,222.92s-21-16.12-91.93-.1c-1.93.44-3.7,77.45-3.7,77.45s32.93,128.91,26.67,161.07c0,0,37.64,31.77,93.8,4.12,0,0-7.3-101.23-2.2-123.78s15.3-43,.84-66.39S750.6,222.92,750.6,222.92Z"/><path class="cls-22" d="M750.6,217.78s-21-13.9-91.93,2.12c-1.93.44-3.7,80.37-3.7,80.37s32.93,128.91,26.67,161.07c0,0,37.49,125,75.4,119.34,9.82-1.45,20.32-101.95,18.4-115.22,0,0-7.3-101.23-2.2-123.78s15.3-43,.84-66.39S750.6,217.78,750.6,217.78Z"/><path class="cls-4" d="M655.4,492.76c-1.15-1.15-11.22-16-13.36-13.82s8.9,15.82,8.9,15.82-12.82-13-15.36-10.45,17.14,20.06,19.21,20.06S655.4,492.76,655.4,492.76Z"/><path class="cls-8" d="M672.78,478.11c-.19-.32-7.75-9.19-17.77-22.22-3.21-4.16-6.68-8.79-10.24-13.66-4.93,4.15-9.59,9-14.8,13.12,4.22,5.16,8,9.89,11.21,13.91h0c3.48,4.55,5.88,8,6.77,10a83.21,83.21,0,0,1,6.84,25.11s12.14-.42,14.85-3.14.57-6.85,4.56-10.84S672.78,478.11,672.78,478.11Z"/><path class="cls-22" d="M604.92,357c6.87-30.39,46.92-47.7,53.78-62.7,7-15.41,1.3-74.75,1.3-74.75-29.77-2-98.25,125-96.54,144.11,1.2,13.36,35.33,68.52,60.69,99.53,5.2-4.09,15.69-16.81,20.62-21C624.2,414,600.54,376.36,604.92,357Z"/><path class="cls-22" d="M660,219.55c1.06,13,.59,28.94.84,42.24.22,23.5-1.19,30.91-6.38,36.81-12,14-44.26,31-49.54,58.4,7.5-27.16,38.67-42.28,51.26-56.94,4.75-5.47,5.67-11.33,6.25-18.74C663.71,264,662.66,237,660,219.55Z"/><path class="cls-22" d="M681.64,461.34s-37.43,47.94-46.28,96.14-12,296.29-12,296.29L612.63,907.1l25.62,251.71,63.08-10.28S725.64,734.68,745.54,651s14.94-103.48,14.94-103.48l-3-75Z"/><path class="cls-5" d="M730.63,230.41q9.42,71.36,17.67,142.85c2.68,23.84,5.33,47.69,7.54,71.58s4.51,47.79,4.32,71.93a.93.93,0,0,1-1.85,0v-.06c0-23.86-2.61-47.78-4.9-71.62s-5.26-47.66-8.14-71.46q-8.78-71.4-18.86-142.63a2.13,2.13,0,1,1,4.21-.61Z"/><path class="cls-1" d="M639.35,252.62s-13.44,31.68-9.23,32.31-.21,12.53,1,23.09,6.28-21.78,10.8-25.12,6.21-3.18,8.35-17.55,6.11-41,.71-33.57S639.35,252.62,639.35,252.62Z"/><path class="cls-1" d="M708.41,717.3s5.36-18.07-6.14-18.07-17.67,59.61-12.42,64.85S708.41,717.3,708.41,717.3Z"/><path class="cls-1" d="M677.65,559.36s-11.24,37.09-2.87,55.17.53-26.72,12.29-38.48,7.13-53,7.13-66.78-5.76,5.15-14.18,13.57-16.93-4.05-16.93,13.51S677.65,559.36,677.65,559.36Z"/><path class="cls-1" d="M676.62,275.25s-8,10.35-3,10.35S681.93,275.25,676.62,275.25Z"/><path class="cls-1" d="M679.09,261.64h0a3.43,3.43,0,0,1-3.42-3.42h0a3.43,3.43,0,0,1,3.42-3.42h0a3.42,3.42,0,0,1,3.42,3.42h0A3.42,3.42,0,0,1,679.09,261.64Z"/><path class="cls-1" d="M683.69,248.3h0a1.19,1.19,0,0,1-1.18-1.18h0a1.19,1.19,0,0,1,1.18-1.18h0a1.18,1.18,0,0,1,1.18,1.18h0A1.18,1.18,0,0,1,683.69,248.3Z"/><path class="cls-23" d="M722.28,135.43c0,2.79-3.72,5-8.32,5s-8.31-2.25-8.31-5,3.72-5,8.31-5S722.28,132.65,722.28,135.43Z"/><path class="cls-23" d="M753.86,135.43c0,2.79-3.72,5-8.32,5s-8.32-2.25-8.32-5,3.73-5,8.32-5S753.86,132.65,753.86,135.43Z"/><path class="cls-6" d="M687.07,153.07c-1.89,1.89-11.4,5.9-11.4,14.83s12.58,17.6,6.76,20.41-9.39-1.53-9.39,11a24.21,24.21,0,0,0,9.47,19s14.51,1.9,21.4-5-2.14-12.5,1.74-19.9,10.71-11,8.31-18.28c-1.06-3.21-5.7-9.29-11.41-13.53A74.36,74.36,0,0,0,687.07,153.07Z"/><path class="cls-6" d="M682.43,73.43c5.18-5.18,26.2-6.41,26.2-6.41h1.56c6.59-2.51,41.39,49.22,37,76.81s-7.52,24.77-27.28,28.22-34.49-11.29-39.48-27.59S677.26,78.6,682.43,73.43Z"/><path class="cls-8" d="M739,161.71c1.41,1.41-4.3,42.14,1.34,53.42,0,0-1,20.62-11.11,21.83-8.77,1-24.7-9.36-26.45-17.4-2.35-10.82,0-64.91,0-64.91Z"/><path class="cls-4" d="M738.45,178.57c-13.39,12.11-26,6.6-36.18-8.59.23-7.66.54-14.89.55-15.33L739,161.71C739.62,162.29,739,169.49,738.45,178.57Z"/><path class="cls-8" d="M734.81,70.18s17,3.23,19,17.77,4.84,26.66,2,43.63-12.93,39.59-29.49,43.23S692.39,151,692.39,136s-6.06-40,5.26-55.34S734.81,70.18,734.81,70.18Z"/><path class="cls-4" d="M734.81,70.18s17,3.23,19,17.77c1.83,13.18,4.32,24.37,2.67,39a46.89,46.89,0,0,0-11.93-5.52C726,115.32,709.46,79.53,708.77,78l-.29-.63-.05-.7a13.47,13.47,0,0,1,.51-4.4C720.84,67.56,734.81,70.18,734.81,70.18Z"/><path class="cls-6" d="M696.84,127.54s-6.47-7.47-9.7-10.7-11.31-35.15-3.23-46.06,23.54-11.51,35.91-12.92,32,8,33.08,26.42c0,0-31.82-12.08-40.71-7.84s-12.52,9.29-14.34,19.19S696.84,127.54,696.84,127.54Z"/><path class="cls-4" d="M696.84,127.54s-4.33-18.75-11.52-14.23.53,25.3,7.23,25.3S696.84,127.54,696.84,127.54Z"/><path class="cls-24" d="M689.85,117.26s10.62,17,3.33,15.17S683,114.09,689.85,117.26Z"/><path class="cls-6" d="M735,138.64a132.77,132.77,0,0,1-.71-14,142.74,142.74,0,0,1,1.62,14.54c-2.47.67-5.43,2.05-9.15.65C729.57,140.41,732.38,139.6,735,138.64Z"/><path class="cls-6" d="M725.79,124.23a9.24,9.24,0,0,0-6.25-6.06c-5.54-1.45-8.93,6.53-12.72,6.46,2.73,1.39,7.09-3.27,10.09-4.46,1.63-.66,3.06-.2,4.67.56A14.44,14.44,0,0,1,725.79,124.23Z"/><path class="cls-6" d="M715.75,121.83a2.72,2.72,0,1,0,2.7-3A2.9,2.9,0,0,0,715.75,121.83Z"/><path class="cls-6" d="M738.11,126a9.26,9.26,0,0,1,6.51-5.78c5.6-1.19,8.62,6.93,12.42,7-2.79,1.27-6.95-3.59-9.88-4.91-1.6-.73-3.06-.34-4.7.35A14.3,14.3,0,0,0,738.11,126Z"/><path class="cls-6" d="M748.23,124a2.71,2.71,0,1,1-2.55-3.17A2.88,2.88,0,0,1,748.23,124Z"/><path class="cls-6" d="M727.75,111.31c.6-.4-4.23-5.26-10-5.81s-12.07,5.81-12.07,5.81,8.54-5.1,12.14-3.45S724.41,113.48,727.75,111.31Z"/><path class="cls-6" d="M735.76,155.26a.47.47,0,0,0-.14-.93,25.21,25.21,0,0,1-17.55-5,.47.47,0,0,0-.59.74C722.86,154.36,730.52,156.06,735.76,155.26Z"/><path class="cls-6" d="M728.64,158.34a.47.47,0,0,0,.47-.43c.09-1.17-7-.33-9.55-4.61a.47.47,0,0,0-.81.49c2.41,4,9.55,4.53,9.85,4.55Z"/><path class="cls-6" d="M736.38,61.19c15.55,3.44,20.24,27.37,33,40.09s9.49,31.11,3.43,43.23S757,148.75,757,148.75s5.07,2.83,8.3-7.27-2.42-18-19.59-23.63-33.53-41.41-33.53-41.41C711.76,69.45,720.82,57.76,736.38,61.19Z"/><path class="cls-25" d="M757,148.75c5.9,3.44,14.22-11,8.15-20.43-4.42-7.3-14.09-10.37-21.82-13.56-12.24-7-24-26.46-31.15-38.32,5.17,14.16,16.14,33.79,29.36,41.62l3.18,1.38c3.27,1.32,13.22,4,18,10.47,3.87,5.08,2,13-.55,16.71C761.11,148.24,759.11,149.5,757,148.75Z"/><path class="cls-6" d="M683.69,197S673,193.58,673,204.64s18.28,21.77,16.07,21.77-12.38-.17-10,7.49,20.74,13.22,20.74,13.22,10.55-14.41,8.67-21.22-7.68-2.38-7.68-2.38,9.28-14.33,4.83-20.86S683.69,197,683.69,197Z"/><path class="cls-6" d="M726.39,280.42a208.08,208.08,0,0,0-26.56-33.3s-10,20-2.57,43.51,2.82,38.78,2.82,38.78,16.08-7.4,16.08-22.71c0,0,4.27,11.46,2.51,21.42C718.67,328.12,733.56,297,726.39,280.42Z"/></g></g></svg>