<svg xmlns="http://www.w3.org/2000/svg" viewBox="0 0 981.04 1503"><defs><style>.cls-1{fill:#f3d548;}.cls-2{fill:#25271c;}.cls-3{fill:#b4abc6;}.cls-4{fill:#d4e7ed;}.cls-5{fill:#6f658e;}.cls-6{fill:#d6b425;}.cls-7{fill:#fff;}.cls-8{fill:#c0b4fe;}.cls-9{fill:#4f80ff;}.cls-10{fill:#2846a6;}.cls-11{fill:#f79674;}.cls-12{fill:#847dbf;}.cls-13{fill:#2a417f;}.cls-14{fill:#0f1d5b;}.cls-15{fill:#b0a6ff;}.cls-16{fill:#6a689b;}.cls-17{fill:#ea8063;}.cls-18{fill:#1b2b80;}.cls-19{fill:#151610;}.cls-20{fill:#d87761;}.cls-21{fill:#b56557;}.cls-22{fill:#98d2e5;}.cls-23{fill:#9fadb2;}.cls-24{fill:#c0b8ff;}.cls-25{fill:#e6e3ff;}</style></defs><g id="Layer_2" data-name="Layer 2"><g id="_Layer_" data-name="&lt;Layer&gt;"><path class="cls-1" d="M39,1262.13s-12.76,4.33-6.66,10.42-5.05,28.91,2.5,36.46,6-32.65,10.44-31.74-3.16,22.66,5.31,22.66,5.77-23.83,10.64-19,1.77,16.72,7.65,14.55,5.4-14,7.68-13.82,10.84-6.83,1.68-9.16S67.32,1253.6,39,1262.13Z"/><path class="cls-1" d="M30.67,1418.94s-44.42,6.22-26.34,11.83S48.52,1418.94,30.67,1418.94Z"/><rect class="cls-1" x="89.56" y="1322.71" width="43" height="47.55"/><ellipse class="cls-2" cx="553.39" cy="1448.12" rx="427.65" ry="54.88"/><path class="cls-3" d="M236.78,1287.31s-5.13,130.57-5.13,130.82c0,7-39.49,12.64-88.21,12.64-13.54,0-26.37-.43-37.83-1.22-29.79-2-50.39-6.38-50.39-11.42,0-.25-6.41-162.54-6.42-162.86H238.08Z"/><path class="cls-4" d="M227.61,1279.12c-37.23,5.1-102.23,6.75-148.78,2.78-9.13-.76-17.54-1.75-24.91-3-27.16-4.49-30.5-9.91-16.63-24.1a2.49,2.49,0,0,0-.43,1.34c0,5.3,19.75,9.95,49.53,12.6,16.49,1.46,36.05,2.31,57,2.31,58.85,0,106.56-6.67,106.56-14.91a3.73,3.73,0,0,0-1.88-2.8h.16C272.67,1271.38,241.84,1277.18,227.61,1279.12Z"/><path class="cls-1" d="M36.86,1256.16c0,8.23,47.71,14.91,106.57,14.91S250,1264.39,250,1256.16c0-1.14-.25-1.9-2-3a52.43,52.43,0,0,0-9.57-3.79c-17.61-4.84-53.55-8.15-95-8.15C84.57,1241.26,36.86,1247.93,36.86,1256.16Z"/><path class="cls-5" d="M238.08,1255.18c0,2.61-7.35,5-19.69,6.93-17.31,2.69-44.45,4.42-74.95,4.42l-4.15,0c-28.6-.14-53.9-1.8-70.44-4.35-12.56-1.92-20-4.35-20-7,0-6.11,40.15-11.08,90.49-11.34h4.15C195.7,1243.83,238.08,1248.91,238.08,1255.18Z"/><path class="cls-6" d="M218.39,1262.11c-5.41.84-11.77,1.58-18.91,2.21h0c-15.68,1.39-35.06,2.21-56,2.21s-40.2-.82-55.85-2.19c-7-.62-13.36-1.35-18.73-2.18,17.3-2.68,44.43-4.41,75-4.41C174.1,1257.75,201.07,1259.45,218.39,1262.11Z"/><rect class="cls-7" x="78.22" y="1309.01" width="140.16" height="77.66"/><rect class="cls-8" x="152.07" y="1322.71" width="59.89" height="5.23"/><rect class="cls-8" x="154.1" y="1332.88" width="59.89" height="5.24"/><rect class="cls-8" x="156.14" y="1345.22" width="59.89" height="5.23"/><path class="cls-1" d="M106.13,1278.08s23.4-10.91,28.78-5.53,28.94,11.31,24,11.31-29.66.22-33.16.17S101.77,1288.11,106.13,1278.08Z"/><path class="cls-1" d="M216,1266.53s7.41-1.17,7.41,4.54,7.41,2.6,7.41,9.91-4.12,35.93,4.92,32,.75-35,4.24-35-1.31,8.86,5.67,8.86,6.25-9.74,6.25-14.25-7.34-16.82-17.94-14.06S216,1262.38,216,1266.53Z"/><path class="cls-3" d="M436.1,1306.36s-4.39,111.77-4.39,112c0,6-33.8,10.82-75.52,10.82-11.58,0-22.57-.37-32.38-1-25.51-1.74-43.14-5.46-43.14-9.78,0-.22-5.48-139.16-5.5-139.43h162Z"/><path class="cls-4" d="M428.25,1299.35c-31.87,4.36-87.52,5.77-127.37,2.38-7.81-.66-15-1.51-21.32-2.56-23.25-3.85-26.12-8.48-14.23-20.63a2,2,0,0,0-.38,1.15c0,4.53,16.91,8.52,42.41,10.78,14.11,1.25,30.86,2,48.82,2,50.39,0,91.24-5.71,91.24-12.76a3.21,3.21,0,0,0-1.62-2.4H446C466.83,1292.72,440.43,1297.68,428.25,1299.35Z"/><path class="cls-9" d="M265,1279.69c0,7,40.84,12.76,91.23,12.76s91.24-5.71,91.24-12.76c0-1-.21-1.62-1.7-2.54a45,45,0,0,0-8.18-3.25c-15.08-4.14-45.85-7-81.36-7C305.79,1266.93,265,1272.64,265,1279.69Z"/><path class="cls-5" d="M437.22,1278.85c0,2.23-6.29,4.28-16.86,5.93-14.82,2.3-38.05,3.78-64.17,3.78h-3.54c-24.49-.13-46.15-1.55-60.31-3.72-10.75-1.65-17.17-3.73-17.17-6,0-5.23,34.37-9.49,77.48-9.71h3.54C400.94,1269.13,437.22,1273.48,437.22,1278.85Z"/><path class="cls-10" d="M420.36,1284.78c-4.63.72-10.08,1.35-16.19,1.9h0c-13.43,1.18-30,1.88-48,1.88s-34.41-.69-47.81-1.87c-6-.53-11.43-1.16-16-1.87,14.81-2.3,38-3.78,64.16-3.78C382.44,1281,405.53,1282.5,420.36,1284.78Z"/><rect class="cls-7" x="300.36" y="1324.93" width="120" height="66.48"/><rect class="cls-8" x="363.58" y="1336.66" width="51.27" height="4.48"/><rect class="cls-8" x="365.32" y="1345.37" width="51.27" height="4.48"/><rect class="cls-8" x="367.07" y="1355.93" width="51.27" height="4.48"/><path class="cls-9" d="M324.26,1298.45s20-9.33,24.64-4.73,24.77,9.68,20.54,9.68-25.39.19-28.39.15S320.52,1307,324.26,1298.45Z"/><path class="cls-9" d="M418.34,1288.56s6.35-1,6.35,3.89,6.34,2.22,6.34,8.48-3.53,30.76,4.21,27.4.65-30,3.63-30-1.12,7.58,4.86,7.58,5.35-8.35,5.35-12.2-6.29-14.41-15.37-12S418.34,1285,418.34,1288.56Z"/><rect class="cls-9" x="310.07" y="1336.66" width="36.81" height="40.72"/><path class="cls-11" d="M591.4,280.41c-13.63,0-87.78,36.42-132.26,36.42s-119.93-51-127.34-58.43-19.27-47.12-27.13-47.12-39.24,4.88-44.47,10.12,43.41,60.9,43.41,60.9c11.45,17.27,57,55.47,116.28,80.76s157.41,2.77,171.51-11.34S591.4,280.41,591.4,280.41Z"/><path class="cls-12" d="M478.72,315l27,76.33s93.43,1.17,119.26-40.7-15.34-67.76-44.18-67.76S478.72,315,478.72,315Z"/><path class="cls-13" d="M726.18,570.92,597.42,533.73,394.79,715.26A33.74,33.74,0,0,0,383.88,745a158.08,158.08,0,0,0,22.28,61.71L533,1011.11l-60.71,39.36H577.12L554.7,985.8,492.65,759.06,660,663.42Z"/><path class="cls-14" d="M568.89,647.15c0,16,81.3,294.75,81.3,294.75l66.6,226.8-48.42,34.19h98l-7-22.61H788L722.68,908.49l-15.5-241.28,29.45-46.48-85.9-111.91-86.35-6.19Z"/><path class="cls-15" d="M562.71,337.9S553.8,569.61,552,572.81c0,0,91.78,18.45,137.83,40.61S763,620.73,763,620.73,722.32,285.89,688.45,266.5,554.89,235.53,562.71,337.9Z"/><rect class="cls-2" x="431.49" y="1050.47" width="265.77" height="16.85"/><rect class="cls-2" x="485.52" y="1202.89" width="265.76" height="16.85"/><rect class="cls-2" x="535.49" y="1365.08" width="265.76" height="16.85"/><path class="cls-12" d="M579,1462.8,385.33,851.38,316.77,634.92c-9.3-29.35,16.29-58.26,51.6-58.26H493c24.08,0,45.31,14,51.62,34L813.07,1462.8h24.3L567.25,605.38c-9.08-28.81-39.61-48.94-74.25-48.94H368.37c-50.8,0-87.59,41.6-74.22,83.8L554.67,1462.8Z"/><polygon class="cls-16" points="150.35 1462.8 381.42 839.04 357.11 839.04 125.75 1462.8 150.35 1462.8"/><polygon class="cls-16" points="452.87 1462.8 644.03 850.22 619.74 850.22 428.58 1462.8 452.87 1462.8"/><path class="cls-11" d="M606.52,162.84s26.75,17.61,43.39,60.52,24.41,39.69,15.46,48.85C653,284.85,610,299,596.42,287.67c0,0,2.39-58.05-15.65-76.09Z"/><path class="cls-17" d="M606.52,162.84s11.35,7.47,23.86,24.54c-8.42,24.51-24.75,40.17-39.23,44.83-2.33-8.45-5.66-15.91-10.38-20.63Z"/><path class="cls-11" d="M570.26,74.27c-16.35,6.72-34.48,22.59-34.48,49.34a249.12,249.12,0,0,0,5.35,49.93h7.73s4.76,39.83,21.4,48.15,48.74-14.86,54.69-60S603.55,60.6,570.26,74.27Z"/><path class="cls-2" d="M591.36,138.77a23.5,23.5,0,0,0-6.54-12.19c-5.64-5.64-8-28.83-16-28.83s-25.56,14.57-45.78,0-21.69-26.15-9.8-33.58,20.51-4.76,27.34-8.62,4.75-11,17.24-12.48S579.47,38,591.36,38,608,53.17,608,53.17s12.92,1,22,10.11,4.46,19.91,9.51,27.64,16,19.61,13.37,42.5-11.21,54-22.5,54S595.53,154.52,591.36,138.77Z"/><path class="cls-18" d="M592.4,25.9V22.56c6.05,1.21,12.92,5.43,16.08,11.29,3.56,6.53,2.17,12.36-.06,19.49l-.83-.33c.09-.36,1.88-6.4,1.52-9.47.08-5.69-2.9-11.21-9-14.72A26.08,26.08,0,0,0,592.86,26C592.54,25.92,592.08,25.89,592.4,25.9Z"/><path class="cls-2" d="M550.85,141.07c1.13,2.19,3.51,3.22,5.31,2.29s2.36-3.46,1.23-5.65-3.5-3.21-5.31-2.29S549.72,138.88,550.85,141.07Z"/><path class="cls-2" d="M566.07,135.94s-8.16-4.71-15.06-4-9.11,1.95-9.11,1.95l-.84-4.14S557.8,125.27,566.07,135.94Z"/><path class="cls-17" d="M536.43,114.75l78,29.44,1.73-12.78-76.74-27.27A53.51,53.51,0,0,0,536.43,114.75Z"/><path class="cls-19" d="M509.58,67c-5,4.88-5.31,10.85-.2,18,4.31,6,14.68,15,23.63,17.85,16,5,29-5.11,35.77-5.11,8,0,10.4,23.19,16,28.83a21,21,0,0,1,5.39,8.78L648.41,157c2.18-7.66,3.8-13.59,4.31-22.29Z"/><path class="cls-20" d="M589,137.13s4.39-23.51,12.48-15.42,4.68,29.13,0,29.13S589,151.38,589,137.13Z"/><path class="cls-21" d="M591.36,138.77s4.15-12.74,8.12-8.77,5.47,15.63,0,15.63S591.36,143.15,591.36,138.77Z"/><path class="cls-1" d="M590.89,330.26s26.75-23.84,31.4-19.19-30.82,30.24-19.19,30.24,27.28-12.71,27.28-1.7-38.33,53.64-32.71,59.26,29.52.89,13,17.44-38.76,44.78-38.76,37.22,13.78-25,13.78-32S561.21,410.7,571.88,400s23.66-25.53,13.78-25.53-13.78,11.58-13.78,11.58-9.87-6.83-2.7-19.41,6.94-7.92,2.7-19.55S590.89,330.26,590.89,330.26Z"/><path class="cls-1" d="M630.38,391.31s-10,33.08-4.14,39,5.35-20.51,15.24-20.51,8.72-1.58,8.72-18.45,17.82-36.05,3.1-40.12-16.93,6.25-11.54,11.63S639.63,389,630.38,385.5s-19.74,9.15-11,11.63S630.38,391.31,630.38,391.31Z"/><polygon class="cls-4" points="464.04 80.82 641.71 0 713.97 167.95 464.04 80.82"/><polygon class="cls-22" points="649.62 18.37 494.22 91.34 496.58 92.17 650.31 19.98 649.62 18.37"/><polygon class="cls-22" points="647.22 12.81 486.06 88.5 488.41 89.32 647.91 14.42 647.22 12.81"/><polygon class="cls-22" points="645.26 8.25 479.35 86.16 481.71 86.98 645.95 9.85 645.26 8.25"/><polygon class="cls-22" points="643.14 3.33 472.13 83.64 474.49 84.47 643.84 4.94 643.14 3.33"/><polygon class="cls-22" points="517.78 99.55 520.13 100.38 591.78 66.73 590.8 65.26 517.78 99.55"/><polygon class="cls-22" points="657.2 36.01 656.51 34.4 639.76 42.27 640.71 43.75 657.2 36.01"/><polygon class="cls-22" points="524.96 102.06 527.32 102.88 594.77 71.2 593.79 69.73 524.96 102.06"/><polygon class="cls-22" points="659.31 40.9 658.62 39.29 642.66 46.79 643.61 48.27 659.31 40.9"/><polygon class="cls-22" points="532.14 104.56 534.5 105.39 597.76 75.68 596.78 74.21 532.14 104.56"/><polygon class="cls-22" points="661.41 45.79 660.72 44.18 645.55 51.3 646.51 52.79 661.41 45.79"/><polygon class="cls-22" points="663.52 50.68 662.83 49.07 648.45 55.82 649.4 57.31 663.52 50.68"/><polygon class="cls-22" points="539.33 107.07 541.68 107.89 600.75 80.15 599.77 78.68 539.33 107.07"/><polygon class="cls-22" points="546.51 109.57 548.87 110.39 603.75 84.62 602.76 83.16 546.51 109.57"/><polygon class="cls-22" points="665.62 55.57 664.93 53.96 651.34 60.34 652.29 61.83 665.62 55.57"/><polygon class="cls-22" points="553.69 112.08 556.05 112.9 606.74 89.1 605.75 87.63 553.69 112.08"/><polygon class="cls-22" points="667.72 60.46 667.03 58.85 654.24 64.86 655.19 66.34 667.72 60.46"/><polygon class="cls-22" points="669.82 65.35 669.14 63.74 657.13 69.38 658.08 70.86 669.82 65.35"/><polygon class="cls-22" points="560.88 114.58 563.24 115.4 609.73 93.57 608.75 92.1 560.88 114.58"/><polygon class="cls-22" points="568.06 117.09 570.42 117.91 612.72 98.04 611.73 96.58 568.06 117.09"/><polygon class="cls-22" points="671.93 70.24 671.24 68.63 660.03 73.9 660.98 75.38 671.93 70.24"/><polygon class="cls-22" points="575.25 119.59 577.61 120.41 615.71 102.52 614.73 101.05 575.25 119.59"/><polygon class="cls-22" points="674.03 75.13 673.34 73.52 662.92 78.42 663.87 79.9 674.03 75.13"/><polygon class="cls-22" points="582.43 122.09 584.79 122.92 618.7 106.99 617.72 105.52 582.43 122.09"/><polygon class="cls-22" points="676.14 80.02 675.44 78.41 665.82 82.93 666.77 84.42 676.14 80.02"/><polygon class="cls-22" points="589.61 124.6 591.97 125.42 621.69 111.47 620.71 110 589.61 124.6"/><polygon class="cls-22" points="678.24 84.91 677.55 83.3 668.71 87.45 669.66 88.94 678.24 84.91"/><polygon class="cls-22" points="596.8 127.1 599.16 127.92 624.68 115.94 623.7 114.47 596.8 127.1"/><polygon class="cls-22" points="680.34 89.8 679.65 88.19 671.61 91.97 672.56 93.45 680.34 89.8"/><polygon class="cls-22" points="627.67 120.41 626.69 118.94 603.98 129.61 606.34 130.43 628.35 120.09 627.67 120.41"/><polygon class="cls-22" points="682.45 94.69 681.76 93.08 674.5 96.49 675.45 97.97 682.45 94.69"/><polygon class="cls-22" points="683.86 97.97 611.17 132.11 613.52 132.93 684.55 99.58 683.86 97.97"/><polygon class="cls-22" points="685.96 102.86 618.35 134.62 620.71 135.44 686.65 104.47 685.96 102.86"/><polygon class="cls-22" points="688.07 107.75 625.53 137.12 627.89 137.94 688.76 109.36 688.07 107.75"/><polygon class="cls-22" points="690.17 112.64 632.72 139.63 635.08 140.45 690.86 114.25 690.17 112.64"/><polygon class="cls-22" points="692.27 117.53 639.9 142.13 642.26 142.95 692.97 119.14 692.27 117.53"/><polygon class="cls-22" points="694.38 122.42 647.09 144.63 649.45 145.46 695.07 124.03 694.38 122.42"/><polygon class="cls-22" points="696.49 127.31 654.27 147.14 656.63 147.96 697.17 128.92 696.49 127.31"/><polygon class="cls-22" points="698.59 132.2 661.46 149.64 663.81 150.46 699.28 133.81 698.59 132.2"/><polygon class="cls-22" points="700.69 137.09 668.64 152.15 671 152.97 701.38 138.7 700.69 137.09"/><polygon class="cls-22" points="702.8 141.98 675.82 154.65 678.18 155.47 703.49 143.59 702.8 141.98"/><polygon class="cls-22" points="704.9 146.87 683 157.15 685.36 157.98 705.59 148.48 704.9 146.87"/><polygon class="cls-22" points="707 151.76 690.19 159.66 692.55 160.48 707.69 153.37 707 151.76"/><polygon class="cls-22" points="709.11 156.65 697.37 162.16 699.73 162.99 709.8 158.26 709.11 156.65"/><polygon class="cls-22" points="711.21 161.54 704.56 164.67 706.91 165.49 711.9 163.15 711.21 161.54"/><polygon class="cls-22" points="654.4 29.5 653.71 27.89 635.91 36.25 636.86 37.74 654.4 29.5"/><polygon class="cls-22" points="580.6 65.32 579.91 63.71 562.11 72.07 563.06 73.56 580.6 65.32"/><polygon class="cls-22" points="651.91 23.71 502.07 94.08 504.42 94.9 652.6 25.32 651.91 23.71"/><polygon class="cls-22" points="597.13 62.17 633.34 45.17 665.29 95.04 630.14 111.54 597.13 62.17"/><path class="cls-2" d="M564.39,187.23a.87.87,0,0,0-1.6-.68c-1.58,3.25-3.95,7.36-7.21,8.94a4.82,4.82,0,0,1-1.8.5c.33,1.06.68,2.13,1.05,3.19C559.37,198.08,562.55,192.26,564.39,187.23Z"/><polygon class="cls-4" points="520.28 68.61 626.24 16.28 516.47 68.61 520.28 68.61"/><polygon class="cls-23" points="520.69 70.36 508.75 70.36 625.48 14.71 627.01 17.84 520.69 70.36"/><polygon class="cls-23" points="464.04 80.82 499.61 59.31 713.97 167.95 464.04 80.82"/><path class="cls-11" d="M534.54,529.8S500.91,546,490.88,551.21s-10,11.78-5.23,11.78,20.93-2.19,20.93-2.19Z"/><path class="cls-11" d="M727.63,318.63c-15.88-49.18-53.06-64.52-45.06-24.79,0,0-6.75,150.31-24.17,166.63-13,12.19-102.66,52.62-138.22,78.14-7.76,5.57-35.55,26.53-31,38,5.23,13.36,16.09,7.07,16.09,7.07s2.22,9,16.39,6.49a21,21,0,0,0,16.84,8.3L553.8,548.3c22.94-8.83,146.07-39.36,152.27-56.35C713.44,471.74,743.5,367.81,727.63,318.63Z"/><path class="cls-24" d="M739.16,323.87c-4.54-25-24.85-44.45-42.34-55a16.74,16.74,0,0,0-25.3,12.39L653.3,439.58l78.89,27.32S746.14,362.24,739.16,323.87Z"/><path class="cls-25" d="M696.82,268.88a16.45,16.45,0,0,0-21.07,4.39c-2.73,3.61-3,6.4-3.44,10.79-.06.53-10.24,102.45-19,155.52,3.51-53.69,16.77-155.24,16.83-155.77C671.7,266.92,687.06,262.51,696.82,268.88Z"/><path class="cls-1" d="M381.67,176.34c-23.38,2.4-50.16,12-71.24,19.43-74.14,26.45-76.13,21.13-87.1,28.29L237,241.94c12.69,1,2.31-9,79.75-21.4,21.93-3.62,50.14-8,71.83-17.17C403.52,197.07,397.67,174.69,381.67,176.34Z"/><path class="cls-11" d="M321.18,239.41s-3-24.42-14.32-29.22-19.19-.87-14,4.36,6.76,13.09,6.76,16.14S321.18,243,321.18,239.41Z"/><path class="cls-11" d="M272.87,199.14s-4.35,24.45-8.54,27.5-6.92-11.07-3.53-19C263.57,201.17,265.41,188.91,272.87,199.14Z"/><path class="cls-11" d="M284.74,201.18s-9.75,23.14-13.93,26.19-6.93-11.07-3.53-19C270.05,201.91,277.28,191,284.74,201.18Z"/><path class="cls-11" d="M293.34,201.62s-8,19.46-12.2,22.51S274.29,216,277.69,208C280.46,201.56,285.88,191.4,293.34,201.62Z"/><path class="cls-12" d="M226.1,246a17.82,17.82,0,0,0,2.65-.83,80.26,80.26,0,0,0,8.26-3.2l-13.68-17.88s-6.31-1.83-15,.58-19.77-.78-19.77-5.43a15.62,15.62,0,0,1,2.33-8.07s-6.24,2.09-6.69,7.12c-.93-4.26-2.32-10.24-2.32-10.24s-4.36.14-4.36,5.95a48.38,48.38,0,0,0,4.22,17.24l-9.31-2.76s9.48,19.69,28.56,19.7C209.25,250,218.87,248.11,226.1,246Z"/><path class="cls-1" d="M204.7,248.72c-.15-8.19-11.88-4.78-15.58-8.49s0-5.62-4.8-16.1c-2.31-5,.81-7.44,4.68-8.58a15.14,15.14,0,0,1,1.86-4.41s-6.24,2.09-6.69,7.12c-.93-4.26-2.32-10.24-2.32-10.24s-4.36.14-4.36,5.95a48.38,48.38,0,0,0,4.22,17.24l-9.31-2.76s9.48,19.69,28.56,19.7A30.65,30.65,0,0,0,204.7,248.72Z"/><path class="cls-1" d="M176,248.72s-5.67,40,0,40S176,248.72,176,248.72Z"/><path class="cls-1" d="M193,317s14,35.76,7,38.82S193,317,193,317Z"/></g></g></svg>