<svg width="909" height="779" viewBox="0 0 909 779" fill="none" xmlns="http://www.w3.org/2000/svg">
<path d="M639.215 96.4611L721.808 13.8913C722.192 13.5089 722.496 13.0545 722.704 12.5544C722.911 12.0542 723.018 11.518 723.018 10.9766C723.018 10.4351 722.911 9.89888 722.704 9.39872C722.496 8.89856 722.192 8.44424 721.808 8.06177C721.426 7.67846 720.971 7.37434 720.471 7.16684C719.971 6.95935 719.435 6.85254 718.893 6.85254C718.351 6.85254 717.815 6.95935 717.315 7.16684C716.814 7.37434 716.36 7.67846 715.977 8.06177L633.39 90.6315C632.619 91.4056 632.186 92.4537 632.186 93.5463C632.186 94.6389 632.619 95.687 633.39 96.4611C634.163 97.2318 635.211 97.6646 636.303 97.6646C637.395 97.6646 638.442 97.2318 639.215 96.4611Z" fill="#F3D548"/>
<path d="M650.265 55.9476L681.278 24.9441C681.661 24.5616 681.965 24.1073 682.173 23.6071C682.38 23.107 682.487 22.5708 682.487 22.0293C682.487 21.4878 682.38 20.9516 682.173 20.4515C681.965 19.9513 681.661 19.497 681.278 19.1145C680.895 18.7312 680.441 18.4271 679.94 18.2196C679.44 18.0121 678.904 17.9053 678.362 17.9053C677.82 17.9053 677.284 18.0121 676.784 18.2196C676.284 18.4271 675.829 18.7312 675.447 19.1145L644.44 50.1117C644.057 50.4947 643.752 50.9496 643.545 51.4503C643.337 51.951 643.23 52.4876 643.23 53.0297C643.23 53.5717 643.337 54.1083 643.545 54.609C643.752 55.1097 644.057 55.5645 644.44 55.9476C645.214 56.7168 646.262 57.1485 647.353 57.1485C648.444 57.1485 649.491 56.7168 650.265 55.9476Z" fill="#F3D548"/>
<path d="M639.215 125.927L751.284 13.8909C751.667 13.5084 751.971 13.0541 752.179 12.5539C752.386 12.0538 752.493 11.5176 752.493 10.9761C752.493 10.4346 752.386 9.89844 752.179 9.39828C751.971 8.89812 751.667 8.4438 751.284 8.06133C750.9 7.67782 750.445 7.37357 749.945 7.16599C749.444 6.95841 748.907 6.85156 748.365 6.85156C747.823 6.85156 747.286 6.95841 746.785 7.16599C746.284 7.37357 745.829 7.67782 745.446 8.06133L633.391 120.091C632.619 120.866 632.186 121.916 632.186 123.009C632.186 124.103 632.619 125.152 633.391 125.927C634.164 126.698 635.211 127.131 636.303 127.131C637.395 127.131 638.442 126.698 639.215 125.927Z" fill="#F3D548"/>
<path d="M645.365 149.24L774.602 20.0399C774.986 19.6569 775.29 19.202 775.497 18.7013C775.705 18.2007 775.812 17.664 775.812 17.122C775.812 16.58 775.705 16.0433 775.497 15.5426C775.29 15.0419 774.986 14.5871 774.602 14.2041C773.828 13.433 772.779 13 771.686 13C770.593 13 769.545 13.433 768.771 14.2041L639.528 143.41C639.144 143.793 638.84 144.247 638.632 144.747C638.425 145.247 638.318 145.784 638.318 146.325C638.318 146.867 638.425 147.403 638.632 147.903C638.84 148.403 639.144 148.857 639.528 149.24C639.911 149.623 640.366 149.928 640.867 150.135C641.367 150.343 641.904 150.45 642.446 150.45C642.989 150.45 643.525 150.343 644.026 150.135C644.527 149.928 644.982 149.623 645.365 149.24Z" fill="#F3D548"/>
<path d="M655.453 168.621L793.983 30.1241C794.367 29.7411 794.671 29.2863 794.879 28.7856C795.086 28.2849 795.193 27.7482 795.193 27.2062C795.193 26.6642 795.086 26.1275 794.879 25.6269C794.671 25.1262 794.367 24.6713 793.983 24.2883C793.601 23.905 793.146 23.6009 792.646 23.3934C792.146 23.1859 791.609 23.0791 791.068 23.0791C790.526 23.0791 789.99 23.1859 789.489 23.3934C788.989 23.6009 788.535 23.905 788.152 24.2883L649.64 162.786C649.257 163.169 648.952 163.623 648.745 164.124C648.537 164.625 648.43 165.161 648.43 165.703C648.43 166.245 648.537 166.782 648.745 167.283C648.952 167.784 649.257 168.238 649.64 168.621C650.415 169.385 651.459 169.814 652.547 169.814C653.634 169.814 654.678 169.385 655.453 168.621Z" fill="#F3D548"/>
<path d="M668.709 184.848L810.221 43.3766C810.604 42.9936 810.909 42.5388 811.116 42.0381C811.324 41.5374 811.431 41.0007 811.431 40.4587C811.431 39.9167 811.324 39.38 811.116 38.8794C810.909 38.3787 810.604 37.9238 810.221 37.5408C809.837 37.1573 809.382 36.8531 808.882 36.6455C808.381 36.4379 807.844 36.3311 807.302 36.3311C806.76 36.3311 806.223 36.4379 805.722 36.6455C805.221 36.8531 804.766 37.1573 804.383 37.5408L662.871 179.018C662.488 179.401 662.184 179.855 661.976 180.355C661.769 180.856 661.662 181.392 661.662 181.933C661.662 182.475 661.769 183.011 661.976 183.511C662.184 184.011 662.488 184.466 662.871 184.848C663.255 185.232 663.709 185.536 664.21 185.743C664.711 185.951 665.248 186.058 665.79 186.058C666.332 186.058 666.869 185.951 667.37 185.743C667.871 185.536 668.326 185.232 668.709 184.848Z" fill="#F3D548"/>
<path d="M684.94 198.1L823.477 59.609C823.861 59.226 824.165 58.7712 824.372 58.2705C824.58 57.7698 824.687 57.2332 824.687 56.6911C824.687 56.1491 824.58 55.6125 824.372 55.1118C824.165 54.6111 823.861 54.1562 823.477 53.7732C823.094 53.3897 822.639 53.0855 822.138 52.8779C821.637 52.6703 821.1 52.5635 820.558 52.5635C820.016 52.5635 819.479 52.6703 818.978 52.8779C818.478 53.0855 818.023 53.3897 817.639 53.7732L679.109 192.264C678.725 192.647 678.421 193.102 678.213 193.603C678.006 194.103 677.899 194.64 677.899 195.182C677.899 195.724 678.006 196.261 678.213 196.762C678.421 197.262 678.725 197.717 679.109 198.1C679.492 198.483 679.946 198.787 680.446 198.995C680.947 199.202 681.483 199.309 682.025 199.309C682.566 199.309 683.103 199.202 683.603 198.995C684.103 198.787 684.558 198.483 684.94 198.1Z" fill="#F3D548"/>
<path d="M704.328 208.185L833.564 78.985C833.948 78.602 834.252 78.1472 834.46 77.6465C834.668 77.1458 834.774 76.6091 834.774 76.0671C834.774 75.5251 834.668 74.9884 834.46 74.4878C834.252 73.9871 833.948 73.5322 833.564 73.1492C833.181 72.7657 832.726 72.4615 832.225 72.2539C831.725 72.0463 831.188 71.9395 830.646 71.9395C830.103 71.9395 829.567 72.0463 829.066 72.2539C828.565 72.4615 828.11 72.7657 827.727 73.1492L698.49 202.349C698.106 202.732 697.802 203.187 697.594 203.688C697.387 204.188 697.28 204.725 697.28 205.267C697.28 205.809 697.387 206.346 697.594 206.846C697.802 207.347 698.106 207.802 698.49 208.185C698.873 208.568 699.328 208.873 699.829 209.08C700.33 209.288 700.867 209.395 701.409 209.395C701.951 209.395 702.488 209.288 702.989 209.08C703.489 208.873 703.944 208.568 704.328 208.185Z" fill="#F3D548"/>
<path d="M727.646 214.314L839.714 102.296C840.486 101.521 840.919 100.472 840.919 99.3784C840.919 98.2847 840.486 97.2356 839.714 96.4605C838.939 95.689 837.889 95.2559 836.795 95.2559C835.701 95.2559 834.652 95.689 833.877 96.4605L721.808 208.497C721.425 208.88 721.12 209.334 720.913 209.835C720.705 210.336 720.598 210.873 720.598 211.415C720.598 211.957 720.705 212.493 720.913 212.994C721.12 213.495 721.425 213.949 721.808 214.332C722.193 214.715 722.649 215.018 723.15 215.223C723.652 215.429 724.189 215.535 724.731 215.533C725.273 215.531 725.81 215.423 726.31 215.213C726.81 215.004 727.264 214.698 727.646 214.314Z" fill="#F3D548"/>
<path d="M757.139 214.314L839.714 131.763C840.486 130.988 840.919 129.939 840.919 128.845C840.919 127.752 840.486 126.703 839.714 125.928C839.331 125.544 838.876 125.24 838.375 125.032C837.874 124.825 837.337 124.718 836.795 124.718C836.253 124.718 835.716 124.825 835.215 125.032C834.715 125.24 834.26 125.544 833.877 125.928L751.283 208.497C750.9 208.88 750.595 209.335 750.388 209.836C750.18 210.336 750.073 210.873 750.073 211.415C750.073 211.957 750.18 212.494 750.388 212.995C750.595 213.495 750.9 213.95 751.283 214.333C751.667 214.719 752.124 215.025 752.628 215.233C753.131 215.441 753.671 215.547 754.215 215.546C754.76 215.544 755.299 215.434 755.801 215.223C756.303 215.011 756.758 214.703 757.139 214.314Z" fill="#F3D548"/>
<path d="M797.646 203.28L828.652 172.282C829.035 171.899 829.34 171.445 829.547 170.944C829.755 170.443 829.862 169.906 829.862 169.364C829.862 168.822 829.755 168.286 829.547 167.785C829.34 167.284 829.035 166.83 828.652 166.447C828.269 166.063 827.815 165.759 827.314 165.552C826.814 165.344 826.278 165.237 825.736 165.237C825.194 165.237 824.658 165.344 824.158 165.552C823.658 165.759 823.203 166.063 822.82 166.447L791.814 197.444C791.431 197.827 791.126 198.282 790.919 198.782C790.711 199.283 790.604 199.82 790.604 200.362C790.604 200.904 790.711 201.44 790.919 201.941C791.126 202.442 791.431 202.897 791.814 203.28C792.589 204.051 793.637 204.484 794.73 204.484C795.823 204.484 796.871 204.051 797.646 203.28Z" fill="#F3D548"/>
<path d="M360.436 61.2338C389.761 77.1292 900.889 294.916 836.877 321.458C772.865 348 664.472 265.631 664.472 308.162C664.472 350.693 988.107 460.618 889.801 495.989C791.496 531.36 723.852 370.519 682.603 411.757C641.353 452.995 848.095 517.232 837.071 570.817C826.046 624.401 553.391 394.481 553.391 444.329C553.391 494.177 676.828 509.079 624.159 561.713C571.491 614.348 310.411 441.217 310.411 403.922C310.411 366.626 439.273 371.662 377.223 309.63C315.174 247.598 228.012 188.847 297.124 172.795C366.236 156.744 255.874 82.4776 255.874 47.8315C255.874 13.1853 360.436 61.2338 360.436 61.2338Z" fill="#E13737"/>
<path d="M701.721 390.301C698.212 390.301 694.781 391.341 691.863 393.29C688.946 395.239 686.671 398.01 685.328 401.251C683.985 404.492 683.634 408.059 684.319 411.5C685.003 414.941 686.693 418.102 689.175 420.582C691.656 423.063 694.818 424.753 698.26 425.437C701.702 426.121 705.269 425.77 708.512 424.428C711.754 423.085 714.525 420.811 716.475 417.894C718.424 414.977 719.465 411.548 719.465 408.039C719.462 403.336 717.591 398.826 714.264 395.5C710.937 392.174 706.426 390.304 701.721 390.301ZM701.721 381.953C706.882 381.953 711.927 383.483 716.218 386.349C720.509 389.216 723.854 393.29 725.829 398.057C727.804 402.823 728.32 408.068 727.314 413.128C726.307 418.189 723.822 422.837 720.172 426.485C716.523 430.133 711.874 432.618 706.812 433.624C701.75 434.631 696.504 434.114 691.736 432.14C686.968 430.165 682.893 426.822 680.025 422.532C677.158 418.242 675.628 413.199 675.628 408.039C675.628 401.121 678.377 394.486 683.27 389.594C688.164 384.702 694.801 381.953 701.721 381.953Z" fill="#F3D548"/>
<path d="M268.63 8.29297H383.292V23.7072L332.48 44.9511L334.705 93.4994L329.605 93.7369L327.392 45.4134L268.643 28.712L268.63 8.29297ZM273.736 24.8632L329.436 40.696L378.186 20.3082V13.3977H273.736V24.8632Z" fill="#33405A"/>
<path d="M355.892 177.975C349.748 168.928 335.323 162.598 335.323 162.598C333.755 161.861 327.436 162.273 327.723 164.273C328.011 166.272 331.936 164.741 335.223 168.09C338.511 171.439 336.342 172.327 334.786 172.552C333.23 172.776 326.261 179.006 326.561 181.099C326.861 183.192 328.092 183.136 328.436 185.385C328.78 187.635 331.405 190.053 336.03 192.502C340.655 194.951 351.798 194.495 354.942 196.876C355.567 197.319 360.367 201.206 365.117 205.048C367.717 202.199 371.486 199.894 371.604 195.47C366.123 191.027 361.086 185.573 355.892 177.975Z" fill="#EA8063"/>
<path d="M336.418 81.2533L368.714 734.391L358.52 734.894L326.224 81.7571L336.418 81.2533Z" fill="#30302F"/>
<path d="M278.499 6.07422H372.948C375.216 6.07422 377.054 7.91212 377.054 10.1793V10.7291C377.054 12.9963 375.216 14.8342 372.948 14.8342H278.499C276.231 14.8342 274.392 12.9963 274.392 10.7291V10.1793C274.392 7.91212 276.231 6.07422 278.499 6.07422Z" fill="#25271C"/>
<path d="M279.342 1.58203H370.992V18.6458H279.342V1.58203Z" fill="#D6D8CA"/>
<path d="M360.892 1.58203C364.338 6.97064 367.244 12.6863 369.567 18.6458H366.629C364.188 12.6759 361.165 6.9605 357.604 1.58203H360.892Z" fill="#30302F"/>
<path d="M348.211 1.58203C351.657 6.97064 354.563 12.6863 356.886 18.6458H353.948C351.513 12.6767 348.496 6.96126 344.942 1.58203H348.211Z" fill="#30302F"/>
<path d="M335.548 1.58203C338.997 6.96926 341.903 12.6852 344.223 18.6458H341.286C338.852 12.6769 335.837 6.96153 332.286 1.58203H335.548Z" fill="#30302F"/>
<path d="M322.886 1.58203C326.337 6.96789 329.243 12.684 331.561 18.6458H328.624C326.198 12.6765 323.19 6.96087 319.642 1.58203H322.886Z" fill="#30302F"/>
<path d="M310.223 1.58203C313.674 6.96901 316.582 12.6849 318.904 18.6458H315.967C313.531 12.6767 310.515 6.96126 306.961 1.58203H310.223Z" fill="#30302F"/>
<path d="M297.561 1.58203C301.012 6.96901 303.92 12.6849 306.242 18.6458H303.305C300.869 12.6767 297.853 6.96126 294.299 1.58203H297.561Z" fill="#30302F"/>
<path d="M284.899 1.58203C288.35 6.96901 291.258 12.6849 293.58 18.6458H290.643C288.207 12.6767 285.19 6.96126 281.636 1.58203H284.899Z" fill="#30302F"/>
<path d="M283.717 10.1173C278.78 9.44246 279.342 3.04432 279.342 1.58224C279.342 0.12017 280.467 1.58224 284.905 1.58224C289.342 1.58224 324.723 0.794974 327.867 0.794974C331.011 0.794974 335.554 1.58224 337.636 0.345105C339.717 -0.892036 370.998 1.59474 370.998 1.59474H371.117C368.852 1.73449 366.618 2.18872 364.479 2.94435C359.886 4.43766 354.373 5.07498 349.217 3.20677C347.747 2.65581 346.161 2.48547 344.607 2.7116C343.053 2.93772 341.582 3.55298 340.329 4.50015C340.329 4.50015 339.517 8.38652 339.079 9.55493C338.642 10.7233 336.848 9.24877 336.848 9.24877C336.848 9.24877 338.636 12.7165 335.373 13.3726C332.111 14.0286 335.598 5.51235 330.998 4.27521C326.398 3.03807 317.411 5.73729 317.411 5.73729C311.786 7.64298 306.292 9.77986 305.167 8.65519C304.042 7.53052 300.536 6.57454 296.967 7.98039C293.398 9.38623 294.317 12.9789 293.573 12.2479C292.83 11.5169 292.98 7.36806 291.017 9.32999C289.055 11.2919 289.03 15.9906 287.605 17.4151C286.18 18.8397 286.63 14.0474 285.961 16.0718C285.292 18.0962 289.561 36.8657 284.842 36.8657C280.123 36.8657 288.661 10.7921 283.717 10.1173Z" fill="#F3D548"/>
<path d="M326.773 179.806C326.773 179.806 345.042 176.95 345.561 180.499C346.08 184.048 328.686 184.342 328.686 184.342C328.686 184.342 345.367 182.093 345.786 185.004C346.205 187.916 331.973 190.003 331.973 190.003C331.973 190.003 345.811 186.935 345.505 189.116C345.198 191.296 331.755 193.97 331.755 193.97C331.755 193.97 328.792 193.127 329.736 190.996C330.423 189.441 329.236 189.016 328.586 188.16C327.936 187.304 327.492 185.329 327.373 184.517C327.255 183.705 324.455 181.299 326.773 179.806Z" fill="#F79674"/>
<path d="M414.504 778.999C185.58 778.999 -6.10352e-05 768.456 -6.10352e-05 755.45C-6.10352e-05 742.444 185.58 731.9 414.504 731.9C643.428 731.9 829.008 742.444 829.008 755.45C829.008 768.456 643.428 778.999 414.504 778.999Z" fill="#25271C"/>
<path d="M503.235 715.868L507.229 748.24H481.972C465.585 748.24 439.885 745.909 439.885 745.909C439.885 745.909 478.391 733.138 478.391 718.986V704.84L503.235 715.868Z" fill="#0D3153"/>
<path d="M361.661 716.955C363.848 711.194 369.892 699.079 369.892 699.079L389.385 704.84L393.392 738.443H326.917C326.917 738.443 359.473 722.71 361.661 716.955Z" fill="#0D3153"/>
<path d="M685.421 653.835C685.421 653.835 688.79 739.554 688.79 739.723C688.79 744.309 714.721 748.021 746.72 748.021C755.608 748.021 764.033 747.739 771.558 747.221C791.126 745.89 804.683 743.035 804.683 739.723C804.683 739.554 808.895 633.004 808.901 632.798H684.565L685.421 653.835Z" fill="#A695C6"/>
<path d="M691.44 648.462C715.889 651.805 758.577 652.886 789.152 650.287C795.145 649.78 800.67 649.131 805.508 648.325C823.339 645.375 825.539 641.82 816.426 632.498C816.605 632.758 816.705 633.064 816.714 633.379C816.714 636.859 803.745 639.915 784.214 641.652C773.389 642.607 760.539 643.17 746.758 643.17C708.102 643.17 676.758 638.796 676.758 633.379C676.758 632.754 677.183 632.129 678.008 631.542H677.902C661.852 643.376 682.096 647.181 691.44 648.462Z" fill="#C0E2ED"/>
<path d="M816.714 633.385C816.714 638.79 785.377 643.17 746.714 643.17C708.052 643.17 676.715 638.796 676.715 633.385C676.715 632.635 676.871 632.136 678.008 631.436C680.018 630.4 682.124 629.563 684.296 628.937C695.89 625.775 719.489 623.569 746.727 623.569C785.377 623.569 816.714 627.981 816.714 633.385Z" fill="#F9B406"/>
<path d="M684.565 632.736C684.565 634.448 689.384 636.029 697.496 637.284C708.865 639.053 726.69 640.19 746.721 640.19H749.439C768.227 640.096 784.846 639.003 795.689 637.334C803.933 636.085 808.858 634.479 808.858 632.748C808.858 628.743 782.496 625.475 749.427 625.307H746.708C712.39 625.288 684.565 628.618 684.565 632.736Z" fill="#56448E"/>
<path d="M697.496 637.316C701.046 637.859 705.228 638.353 709.909 638.765C720.215 639.677 732.94 640.215 746.715 640.215C760.49 640.215 773.115 639.684 783.396 638.778C788.021 638.372 792.146 637.89 795.696 637.347C784.327 635.585 766.508 634.448 746.471 634.448C726.584 634.423 708.871 635.541 697.496 637.316Z" fill="#FB8603"/>
<path d="M697.496 668.081H789.545V719.066H697.496V668.081Z" fill="white"/>
<path d="M701.721 677.072H741.052V680.509H701.721V677.072Z" fill="#C0B4FE"/>
<path d="M700.384 683.758H739.715V687.194H700.384V683.758Z" fill="#C0B4FE"/>
<path d="M699.046 691.855H738.377V695.292H699.046V691.855Z" fill="#C0B4FE"/>
<path d="M815.327 637.316C815.327 637.316 823.702 640.152 819.702 644.189C815.702 648.225 823.008 663.171 818.052 668.125C813.096 673.08 814.121 646.688 811.177 647.281C808.233 647.875 813.252 662.165 807.696 662.165C802.139 662.165 803.902 646.544 800.702 649.718C797.502 652.892 799.546 660.703 795.702 659.272C791.858 657.841 792.152 650.062 790.652 650.193C789.152 650.324 783.533 645.713 789.546 644.189C795.558 642.664 796.708 631.692 815.327 637.316Z" fill="#F9B406"/>
<path d="M771.221 647.775C771.221 647.775 755.852 640.608 752.314 644.145C748.777 647.681 733.308 651.567 736.558 651.567C739.808 651.567 756.039 651.717 758.333 651.68C760.627 651.642 774.083 654.36 771.221 647.775Z" fill="#F9B406"/>
<path d="M699.015 640.19C699.015 640.19 694.146 639.421 694.146 643.17C694.146 646.919 689.277 644.876 689.277 649.675C689.277 654.473 691.99 673.261 686.052 670.681C680.115 668.1 685.552 647.688 683.265 647.688C680.977 647.688 684.121 653.505 679.515 653.505C674.909 653.505 675.409 647.1 675.409 644.132C675.409 641.165 680.234 633.086 687.196 634.898C694.158 636.71 699.015 637.466 699.015 640.19Z" fill="#F9B406"/>
<path d="M820.783 740.254C820.783 740.254 849.951 744.34 838.083 748.02C826.214 751.701 809.058 740.254 820.783 740.254Z" fill="#F9B406"/>
<path d="M753.864 677.072H782.102V708.294H753.864V677.072Z" fill="#FAB300"/>
<path d="M541.272 659.922C541.272 659.922 544.153 733.307 544.153 733.45C544.153 737.374 566.359 740.555 593.753 740.555C601.359 740.555 608.578 740.311 615.003 739.867C631.759 738.73 643.334 736.281 643.334 733.45C643.334 733.307 646.94 642.089 646.946 641.908H540.541L541.272 659.922Z" fill="#A695C6"/>
<path d="M546.428 655.316C567.359 658.184 603.928 659.103 630.077 656.878C635.209 656.447 639.94 655.891 644.077 655.204C659.346 652.673 661.227 649.63 653.452 641.651C653.608 641.873 653.695 642.136 653.702 642.408C653.702 645.388 642.596 648 625.853 649.487C616.578 650.311 605.578 650.786 593.784 650.786C560.69 650.786 533.866 647.037 533.866 642.408C533.906 642.081 534.023 641.768 534.206 641.495C534.39 641.221 534.635 640.995 534.922 640.833H534.834C521.091 650.961 538.428 654.223 546.428 655.316Z" fill="#C0E2ED"/>
<path d="M653.678 642.408C653.678 647.038 626.853 650.787 593.759 650.787C560.666 650.787 533.841 647.038 533.841 642.408C533.841 641.783 533.978 641.346 534.953 640.746C536.67 639.86 538.471 639.147 540.328 638.615C550.235 635.891 570.441 634.029 593.759 634.029C626.853 634.029 653.678 637.784 653.678 642.408Z" fill="#4F80FF"/>
<path d="M540.54 641.858C540.54 643.32 544.665 644.676 551.609 645.751C561.34 647.263 576.609 648.25 593.753 648.25H596.084C612.165 648.169 626.39 647.238 635.684 645.807C642.746 644.726 646.934 643.364 646.934 641.883C646.934 638.453 624.365 635.635 596.059 635.51H593.728C564.365 635.479 540.54 638.334 540.54 641.858Z" fill="#56448E"/>
<path d="M551.609 645.75C554.647 646.219 558.228 646.644 562.234 647C571.059 647.775 581.953 648.25 593.747 648.25C605.54 648.25 616.34 647.787 625.147 647C629.109 646.65 632.647 646.238 635.678 645.75C625.947 644.238 610.678 643.251 593.534 643.251C576.516 643.295 561.347 644.257 551.609 645.75Z" fill="#2F499F"/>
<path d="M551.609 672.111H630.415V715.761H551.609V672.111Z" fill="white"/>
<path d="M555.222 679.815H588.896V682.758H555.222V679.815Z" fill="#C0B4FE"/>
<path d="M554.078 685.532H587.753V688.475H554.078V685.532Z" fill="#C0B4FE"/>
<path d="M552.935 692.468H586.609V695.404H552.935V692.468Z" fill="#C0B4FE"/>
<path d="M614.727 654.729C614.727 654.729 601.571 648.599 598.54 651.605C595.509 654.61 582.29 657.959 585.053 657.959C587.815 657.959 601.728 658.084 603.696 658.059C605.665 658.034 617.177 660.365 614.727 654.729Z" fill="#4F80FF"/>
<path d="M552.935 648.237C552.935 648.237 548.772 647.612 548.772 650.786C548.772 653.961 544.603 652.249 544.603 656.36C544.603 660.471 546.922 676.554 541.835 674.342C536.747 672.13 541.416 654.654 539.453 654.654C537.491 654.654 540.191 659.653 536.266 659.653C532.341 659.653 532.766 654.185 532.766 651.624C532.766 649.062 536.891 642.164 542.853 643.713C548.816 645.263 552.935 645.907 552.935 648.237Z" fill="#4F80FF"/>
<path d="M599.865 679.815H624.04V706.545H599.865V679.815Z" fill="#4F80FF"/>
<path d="M439.267 136.074C439.267 136.074 428.948 226.186 419.942 226.186C410.935 226.186 371.617 189.802 371.617 189.802L359.548 205.048C359.548 205.048 405.173 271.747 431.317 260.032C457.46 248.317 455.96 164.953 455.96 164.953L439.267 136.074Z" fill="#0F1D5B"/>
<path d="M423.741 290.829L363.717 705.29L393.729 710.601L472.604 431.588L455.96 285.6L423.741 290.829Z" fill="#0F1D5B"/>
<path d="M439.266 139.286C439.266 139.286 452.391 129.214 496.722 139.224C497.928 139.499 499.035 187.616 499.035 187.616C499.035 187.616 478.454 268.161 482.366 288.255C482.366 288.255 458.841 308.106 423.741 290.829C423.741 290.829 428.304 227.579 425.116 213.489C421.929 199.4 415.554 186.622 424.591 172.008C433.629 157.393 439.266 139.286 439.266 139.286Z" fill="#EE0085"/>
<path d="M439.266 136.075C439.266 136.075 452.391 127.39 496.722 137.399C497.928 137.674 499.035 187.616 499.035 187.616C499.035 187.616 478.454 268.161 482.366 288.255C482.366 288.255 458.935 366.358 435.241 362.821C429.104 361.915 422.541 299.121 423.741 290.83C423.741 290.83 428.304 227.579 425.116 213.49C421.929 199.4 415.554 186.622 424.591 172.008C433.629 157.393 439.266 136.075 439.266 136.075Z" fill="#2A417F"/>
<path d="M498.766 307.887C499.485 307.168 505.779 297.889 507.116 299.252C508.454 300.614 501.554 309.136 501.554 309.136C501.554 309.136 509.566 301.014 511.154 302.607C512.741 304.2 500.441 315.141 499.148 315.141C497.854 315.141 498.766 307.887 498.766 307.887Z" fill="#EA8063"/>
<path d="M487.904 298.733C488.023 298.533 492.748 292.991 499.01 284.849C501.016 282.25 503.185 279.357 505.41 276.314C508.491 278.907 511.404 281.938 514.66 284.512C512.023 287.736 509.66 290.692 507.654 293.203C505.479 296.046 503.979 298.202 503.423 299.451C501.183 304.425 499.741 309.719 499.148 315.141C499.148 315.141 491.56 314.878 489.867 313.179C488.173 311.479 489.51 308.899 487.017 306.406C484.523 303.913 487.904 298.733 487.904 298.733Z" fill="#F79674"/>
<path d="M530.316 223.062C526.022 204.074 500.991 193.258 496.704 183.886C492.329 174.257 495.891 137.181 495.891 137.181C514.497 135.931 557.297 215.283 556.228 227.223C555.478 235.571 534.147 270.036 518.297 289.411C515.047 286.856 508.491 278.908 505.41 276.29C518.266 258.677 533.054 235.158 530.316 223.062Z" fill="#2A417F"/>
<path d="M495.891 137.181C495.229 145.303 495.522 155.263 495.366 163.573C495.229 178.256 496.11 182.886 499.354 186.573C506.854 195.32 527.016 205.942 530.316 223.062C525.628 206.092 506.147 196.645 498.279 187.485C495.31 184.067 494.735 180.406 494.372 175.776C493.572 164.954 494.229 148.084 495.891 137.181Z" fill="#2A417F"/>
<path d="M482.366 288.255C482.366 288.255 505.76 318.209 511.291 348.325C516.822 378.441 518.791 533.452 518.791 533.452L525.497 566.774L509.485 724.047L470.06 717.624C470.06 717.624 454.866 459.043 442.429 406.758C429.991 354.473 433.091 342.102 433.091 342.102L434.966 295.24L482.366 288.255Z" fill="#2A417F"/>
<path d="M451.748 143.966C447.823 173.691 444.142 203.443 440.704 233.221C439.029 248.117 437.373 263.019 435.992 277.946C434.61 292.873 433.173 307.806 433.292 322.889C433.307 323.032 433.374 323.164 433.481 323.26C433.587 323.357 433.726 323.41 433.87 323.41C434.014 323.41 434.152 323.357 434.259 323.26C434.366 323.164 434.433 323.032 434.448 322.889V322.852C434.448 307.943 436.079 292.998 437.51 278.102C438.942 263.206 440.798 248.323 442.598 233.453C446.256 203.711 450.185 174.005 454.385 144.335C454.421 144.157 454.42 143.975 454.382 143.798C454.345 143.621 454.272 143.454 454.167 143.306C454.063 143.159 453.93 143.034 453.776 142.939C453.621 142.845 453.45 142.783 453.271 142.757C453.092 142.731 452.91 142.742 452.735 142.789C452.56 142.835 452.397 142.917 452.255 143.029C452.113 143.141 451.996 143.281 451.909 143.44C451.823 143.599 451.77 143.774 451.754 143.954L451.748 143.966Z" fill="#30302F"/>
<path d="M508.798 157.843C508.798 157.843 517.198 177.637 514.566 178.031C511.935 178.424 514.698 185.86 513.941 192.458C513.185 199.056 510.016 178.849 507.191 176.762C504.366 174.675 503.31 174.775 501.973 165.797C500.635 156.818 498.154 140.179 501.529 144.822C504.904 149.464 508.798 157.843 508.798 157.843Z" fill="#F3D548"/>
<path d="M465.635 448.184C465.635 448.184 462.285 436.894 469.473 436.894C476.66 436.894 480.516 474.139 477.235 477.413C473.954 480.687 465.635 448.184 465.635 448.184Z" fill="#F3D548"/>
<path d="M484.86 349.5C484.86 349.5 491.885 372.675 486.654 383.971C481.423 395.268 486.323 367.276 478.973 359.928C471.623 352.58 474.516 326.813 474.516 318.203C474.516 309.593 478.116 321.421 483.379 326.682C488.641 331.943 493.96 324.151 493.96 335.123C493.96 346.095 484.86 349.5 484.86 349.5Z" fill="#F3D548"/>
<path d="M485.504 171.982C485.504 171.982 490.504 178.449 487.379 178.449C484.254 178.449 482.185 171.982 485.504 171.982Z" fill="#F3D548"/>
<path d="M483.96 163.479C484.527 163.477 485.069 163.252 485.47 162.851C485.87 162.451 486.096 161.908 486.098 161.342C486.096 160.776 485.87 160.233 485.47 159.833C485.069 159.432 484.527 159.207 483.96 159.205C483.393 159.205 482.85 159.43 482.449 159.831C482.048 160.232 481.823 160.775 481.823 161.342C481.823 161.909 482.048 162.452 482.449 162.853C482.85 163.254 483.393 163.479 483.96 163.479Z" fill="#F3D548"/>
<path d="M481.085 155.144C481.28 155.142 481.466 155.064 481.604 154.926C481.742 154.788 481.821 154.601 481.822 154.406C481.821 154.211 481.742 154.025 481.604 153.887C481.466 153.749 481.28 153.671 481.085 153.669C480.889 153.669 480.702 153.747 480.563 153.885C480.425 154.023 480.347 154.211 480.347 154.406C480.347 154.602 480.425 154.789 480.563 154.928C480.702 155.066 480.889 155.144 481.085 155.144Z" fill="#F3D548"/>
<path d="M456.966 84.6202C456.966 86.3634 459.291 87.7443 462.166 87.7443C465.041 87.7443 467.36 86.3384 467.36 84.6202C467.36 82.9019 465.035 81.4961 462.166 81.4961C459.297 81.4961 456.966 82.8832 456.966 84.6202Z" fill="#FD5E5A"/>
<path d="M437.229 84.6202C437.229 86.3634 439.554 87.7443 442.429 87.7443C445.304 87.7443 447.629 86.3384 447.629 84.6202C447.629 82.9019 445.298 81.4961 442.429 81.4961C439.56 81.4961 437.229 82.8832 437.229 84.6202Z" fill="#FD5E5A"/>
<path d="M478.972 95.6426C480.154 96.8235 486.097 99.329 486.097 104.909C486.097 110.488 478.235 115.905 481.872 117.661C485.51 119.417 487.741 116.705 487.741 124.534C487.722 126.832 487.178 129.096 486.153 131.153C485.127 133.21 483.646 135.006 481.822 136.406C481.822 136.406 472.754 137.593 468.448 133.282C464.141 128.97 469.785 125.471 467.36 120.848C464.935 116.224 460.666 113.975 462.166 109.426C462.829 107.42 465.729 103.622 469.298 100.972C472.299 98.8175 475.547 97.0283 478.972 95.6426Z" fill="#25271C"/>
<path d="M481.872 45.8814C478.635 42.6449 465.497 41.8763 465.497 41.8763H464.522C460.404 40.308 438.654 72.6299 441.397 89.8686C444.141 107.107 446.097 105.345 458.447 107.501C470.797 109.657 480.004 100.447 483.122 90.2623C486.241 80.0777 485.103 49.1117 481.872 45.8814Z" fill="#25271C"/>
<path d="M446.517 101.041C445.635 101.922 449.204 127.371 445.679 134.419C445.679 134.419 446.304 147.303 452.623 148.059C458.104 148.684 468.06 142.21 469.154 137.187C470.623 130.426 469.154 96.6299 469.154 96.6299L446.517 101.041Z" fill="#F79674"/>
<path d="M446.86 111.576C455.229 119.142 463.11 115.699 469.473 106.208C469.329 101.422 469.135 96.9048 469.129 96.6299L446.517 101.041C446.129 101.404 446.517 105.902 446.86 111.576Z" fill="#EA8063"/>
<path d="M449.135 43.8514C449.135 43.8514 438.51 45.8695 437.26 54.9544C436.01 64.0392 434.235 71.612 436.01 82.2152C437.785 92.8184 444.091 106.952 454.441 109.226C464.791 111.5 475.648 94.3492 475.648 84.9769C475.648 75.6046 479.435 59.9842 472.36 50.3995C465.285 40.8148 449.135 43.8514 449.135 43.8514Z" fill="#F79674"/>
<path d="M449.135 43.8515C449.135 43.8515 438.51 45.8696 437.26 54.9545C436.116 63.1896 434.56 70.1813 435.591 79.3224C437.902 77.8284 440.412 76.6674 443.048 75.8734C454.641 72.0558 464.979 49.6935 465.41 48.7376L465.591 48.3439L465.622 47.9065C465.669 46.9788 465.561 46.0499 465.304 45.1573C457.866 42.2145 449.135 43.8515 449.135 43.8515Z" fill="#EA8063"/>
<path d="M472.866 79.6911C472.866 79.6911 476.91 75.0238 478.929 73.0056C480.947 70.9874 485.997 51.0432 480.947 44.2265C475.897 37.4097 466.235 37.0348 458.504 36.1538C450.773 35.2728 438.504 41.1523 437.829 52.6615C437.829 52.6615 457.716 45.1137 463.272 47.7629C468.829 50.4122 471.097 53.5675 472.235 59.7532C473.372 65.9389 472.866 79.6911 472.866 79.6911Z" fill="#25271C"/>
<path d="M472.866 79.6909C472.866 79.6909 475.573 67.9755 480.066 70.7997C484.56 73.6239 479.735 86.6076 475.548 86.6076C471.36 86.6076 472.866 79.6909 472.866 79.6909Z" fill="#EA8063"/>
<path d="M477.235 73.2675C477.235 73.2675 470.598 83.8894 475.154 82.746C479.71 81.6026 481.516 71.2868 477.235 73.2675Z" fill="#D87761"/>
<path d="M449.017 86.6264C449.318 83.7204 449.467 80.8005 449.46 77.8789C448.968 80.8879 448.63 83.9202 448.448 86.9638C449.992 87.3824 451.842 88.2446 454.167 87.3699C452.41 87.7323 450.654 87.2262 449.017 86.6264Z" fill="#25271C"/>
<path d="M454.773 77.623C455.063 76.7196 455.571 75.9015 456.252 75.2411C456.933 74.5807 457.767 74.0983 458.679 73.8366C462.141 72.9306 464.26 77.9167 466.629 77.873C464.923 78.7415 462.198 75.8298 460.323 75.0863C459.304 74.6739 458.41 74.9613 457.404 75.4362C456.395 75.9907 455.502 76.733 454.773 77.623Z" fill="#25271C"/>
<path d="M461.048 76.1235C461.014 76.4506 460.886 76.7608 460.679 77.0166C460.472 77.2723 460.196 77.4627 459.883 77.5645C459.57 77.6663 459.235 77.6753 458.917 77.5902C458.599 77.5052 458.313 77.3298 458.093 77.0854C457.873 76.841 457.729 76.5381 457.677 76.2133C457.626 75.8884 457.67 75.5558 457.804 75.2555C457.939 74.9553 458.157 74.7004 458.433 74.5217C458.709 74.3431 459.031 74.2484 459.36 74.249C459.83 74.2812 460.269 74.4948 460.584 74.8446C460.899 75.1945 461.065 75.6531 461.048 76.1235Z" fill="#25271C"/>
<path d="M447.073 78.7288C446.743 77.8395 446.199 77.0451 445.489 76.4153C444.78 75.7855 443.926 75.3398 443.004 75.1174C439.504 74.3738 437.617 79.4474 435.242 79.4911C436.985 80.2846 439.585 77.248 441.417 76.4232C442.417 75.9671 443.329 76.2108 444.354 76.6419C445.386 77.1557 446.31 77.8643 447.073 78.7288Z" fill="#25271C"/>
<path d="M440.748 77.4794C440.803 77.8004 440.95 78.0985 441.171 78.338C441.392 78.5775 441.677 78.7482 441.993 78.8297C442.308 78.9112 442.641 78.9 442.95 78.7975C443.259 78.695 443.532 78.5055 443.736 78.2516C443.941 77.9978 444.067 77.6905 444.101 77.3666C444.135 77.0426 444.075 76.7158 443.928 76.4252C443.78 76.1346 443.552 75.8926 443.271 75.7283C442.99 75.564 442.667 75.4843 442.341 75.4987C441.868 75.5506 441.434 75.7883 441.135 76.1596C440.836 76.5309 440.697 77.0056 440.748 77.4794Z" fill="#25271C"/>
<path d="M453.548 69.5497C453.173 69.2998 456.191 66.2632 459.798 65.9195C463.404 65.5759 467.341 69.5497 467.341 69.5497C467.341 69.5497 462.004 66.3631 459.754 67.3941C457.504 68.425 455.635 70.9056 453.548 69.5497Z" fill="#25271C"/>
<path d="M448.541 97.0109C448.464 96.9993 448.395 96.9575 448.349 96.8949C448.302 96.8322 448.283 96.7537 448.294 96.6766C448.306 96.5995 448.348 96.5303 448.41 96.484C448.473 96.4377 448.552 96.4182 448.629 96.4298C452.547 96.7943 456.46 95.6799 459.597 93.3057C459.659 93.2568 459.737 93.2343 459.815 93.2431C459.893 93.2519 459.964 93.2912 460.013 93.3526C460.062 93.4139 460.085 93.4921 460.076 93.57C460.067 93.6479 460.028 93.7192 459.966 93.7681C456.604 96.4485 451.816 97.5107 448.541 97.0109Z" fill="#25271C"/>
<path d="M452.991 98.9353C452.918 98.9356 452.846 98.9081 452.792 98.8583C452.738 98.8085 452.704 98.7401 452.698 98.6666C452.641 97.9356 457.073 98.4604 458.666 95.7862C458.707 95.7191 458.773 95.6709 458.849 95.6521C458.925 95.6334 459.006 95.6457 459.073 95.6863C459.14 95.7269 459.188 95.7925 459.207 95.8686C459.226 95.9448 459.213 96.0253 459.173 96.0924C457.666 98.5917 453.204 98.9228 453.016 98.9353H452.991Z" fill="#25271C"/>
<path d="M448.154 38.2337C438.435 40.3831 435.504 55.335 427.529 63.2827C419.554 71.2304 421.598 82.7208 425.385 90.2936C429.173 97.8664 435.267 92.9428 435.267 92.9428C435.267 92.9428 432.098 94.711 430.079 88.4004C428.06 82.0897 431.592 77.1536 442.323 73.6359C453.054 70.1182 463.279 47.7622 463.279 47.7622C463.541 43.3947 457.879 36.0906 448.154 38.2337Z" fill="#25271C"/>
<path d="M435.266 92.9433C431.579 95.0927 426.379 86.0703 430.173 80.1783C432.935 75.6171 438.979 73.6989 443.81 71.7057C451.46 67.332 458.81 55.173 463.279 47.7627C460.048 56.6101 453.191 68.8753 444.929 73.7676L442.941 74.6299C440.898 75.4546 434.679 77.1292 431.692 81.1717C429.273 84.3458 430.442 89.2944 432.035 91.6124C432.698 92.6246 433.948 93.4119 435.266 92.9433Z" fill="#003135"/>
<path d="M481.085 123.09C481.085 123.09 487.766 120.953 487.766 127.864C487.766 134.774 476.341 141.466 477.722 141.466C479.104 141.466 485.46 141.36 483.972 146.146C482.485 150.932 471.01 154.406 471.01 154.406C471.01 154.406 464.416 145.403 465.591 141.148C466.766 136.893 470.391 139.661 470.391 139.661C470.391 139.661 464.591 130.707 467.372 126.627C470.154 122.547 481.085 123.09 481.085 123.09Z" fill="#25271C"/>
<path d="M454.398 175.213C459.205 167.728 464.767 160.756 470.998 154.406C470.998 154.406 477.248 166.903 472.604 181.592C467.96 196.282 470.841 205.823 470.841 205.823C470.841 205.823 460.791 201.199 460.791 191.633C460.791 191.633 458.123 198.793 459.223 205.017C459.223 205.017 449.917 185.572 454.398 175.213Z" fill="#25271C"/>
</svg>
