<svg width="784" height="122" viewBox="0 0 784 122" fill="none" xmlns="http://www.w3.org/2000/svg">
<path d="M15.9414 64.7596C16.566 71.6315 17.6925 75.1314 20.6111 78.7592C24.2477 83.2591 29.8981 85.7358 36.2957 85.7358C42.4481 85.7358 47.7191 83.4858 51.3615 79.4859C52.8675 77.7418 53.7431 76.3581 54.9981 72.9861L69.8129 77.736C66.8943 83.7358 65.2949 86.1137 62.1545 89.2357C55.6285 95.6309 46.8435 98.8634 36.2957 98.8634C14.056 98.8866 0 84.1312 0 60.7539C0 37.6265 13.9334 22.499 35.3968 22.499C50.0832 22.499 61.6291 29.7546 66.6491 42.266C69.0365 48.2658 69.9121 52.7657 70.2915 61.2655C70.2915 61.5155 70.2915 61.8934 70.5425 64.7538L15.9414 64.7596ZM54.2217 52.382C53.3462 46.8821 51.8402 43.5043 48.6997 40.3765C45.3142 37.0045 41.0413 35.3766 35.1458 35.3766C25.3568 35.3766 18.2004 41.859 16.3442 52.382H54.2217Z" fill="#25271C"/>
<path d="M105.186 96.5088C104.433 93.1368 103.931 91.6368 101.421 85.387L82.2168 37.8766C80.8334 34.6267 78.8254 30.0047 76.3154 24.7548H95.5198C96.2085 28.718 97.2597 32.61 98.6602 36.3824L111.49 72.6315C112.243 74.6315 113.376 78.3814 114.129 81.0092C115.004 78.2593 116.008 75.1314 116.89 72.6315L129.691 36.3766C131.699 30.5047 132.329 28.2373 132.831 24.749H151.907C150.156 28.2373 148.644 31.7256 146.257 37.8708L126.901 85.387C124.391 91.7822 123.982 92.8868 123.136 96.5088H105.186Z" fill="#25271C"/>
<path d="M209.118 40.5044C203.864 39.0045 201.208 38.5045 197.945 38.5045C191.67 38.5045 186.901 40.5044 183.381 44.6264C180.247 48.2542 178.992 51.1611 178.239 57.1319V80.2592C178.195 85.6885 178.487 91.1154 179.114 96.5088H161.165C161.783 91.1146 162.077 85.6884 162.046 80.2592V41.0044C162.046 33.3767 161.918 29.8768 161.165 24.7548H178.239V36.5045C182.757 27.6268 190.538 23.377 201.833 23.377C204.845 23.377 207.863 23.7549 213.507 24.7548L209.118 40.5044Z" fill="#25271C"/>
<path d="M223.173 40.2545C217.651 27.8769 217.523 27.5048 216.017 24.7549H235.099C235.723 28.3769 237.609 34.2546 239.868 39.3766L255.179 74.8815L269.095 39.5336C272.107 31.9059 273.111 28.7838 273.864 24.784H292.543C291.79 26.406 289.531 31.5338 285.766 40.2836L257.164 107.142C253.171 116.636 245.746 121.014 234.072 121.014C230.307 121.014 226.664 120.636 220.891 119.514L223.81 105.259C227.312 106.764 229.705 107.386 232.566 107.386C234.635 107.427 236.67 106.857 238.416 105.749C240.162 104.642 241.54 103.045 242.378 101.16L246.645 91.5322L223.173 40.2545Z" fill="#25271C"/>
<path d="M311.665 92.3874C311.654 93.1619 311.413 93.9159 310.974 94.5551C310.535 95.1943 309.916 95.6905 309.195 95.9816C308.475 96.2727 307.684 96.3459 306.922 96.1919C306.159 96.038 305.46 95.6638 304.91 95.116C304.36 94.5683 303.984 93.8713 303.829 93.1121C303.675 92.353 303.748 91.5653 304.041 90.8474C304.333 90.1296 304.831 89.5134 305.473 89.0759C306.115 88.6384 306.872 88.399 307.649 88.3875C308.18 88.3772 308.706 88.4736 309.198 88.671C309.69 88.8684 310.137 89.1626 310.512 89.5361C310.887 89.9096 311.182 90.3547 311.381 90.8446C311.579 91.3345 311.676 91.8593 311.665 92.3874Z" fill="#25271C"/>
<path d="M336.52 49.5045C340.157 36.377 349.701 28.6272 363.126 28.6272C380.702 28.6272 392.12 41.8768 392.12 62.5042C392.12 82.7595 380.574 96.2592 363.126 96.2592C349.952 96.2592 340.285 88.3873 336.643 75.5097H336.269C336.699 78.4902 336.908 81.4983 336.894 84.5095V95.0092H333.631C333.918 91.8938 334.045 88.7657 334.01 85.6373V9.37767C334.048 6.24733 333.921 3.11718 333.631 0L337.273 0C336.983 3.11718 336.856 6.24733 336.894 9.37767V40.1152C336.885 43.2511 336.676 46.3833 336.269 49.4929L336.52 49.5045ZM389.236 62.5042C389.236 43.3826 379.196 31.255 363.126 31.255C347.056 31.255 336.894 43.2547 336.894 62.5042C336.894 81.5095 347.185 93.6371 363.126 93.6371C379.196 93.6371 389.236 81.6316 389.236 62.5042Z" fill="#25271C"/>
<path d="M461.915 85.6372C461.879 88.7654 462.004 91.8935 462.289 95.009H459.026V89.7766C459.026 86.9046 459.154 83.2768 459.405 80.3989H459.154C455.652 90.0266 446.476 96.2764 434.55 96.2764C419.864 96.2764 411.33 87.6546 411.33 72.3991V39.3767C411.364 36.2481 411.233 33.1199 410.939 30.0049H414.581C414.294 33.1203 414.169 36.2484 414.208 39.3767V71.6317C414.208 86.0093 421.358 93.637 434.79 93.637C449.225 93.5091 459.014 84.5093 459.014 71.3817V39.4058C459.053 36.2775 458.928 33.1493 458.641 30.034H462.306C462.019 33.1493 461.894 36.2775 461.933 39.4058L461.915 85.6372Z" fill="#25271C"/>
<path d="M492.163 7.87792C492.194 8.28481 492.138 8.69354 491.999 9.07753C491.861 9.46152 491.643 9.81217 491.359 10.1067C491.076 10.4011 490.733 10.6329 490.354 10.7868C489.974 10.9407 489.566 11.0133 489.157 10.9999C488.741 11.0146 488.327 10.9438 487.94 10.7921C487.553 10.6404 487.202 10.4109 486.908 10.118C486.614 9.82517 486.383 9.47514 486.231 9.08974C486.079 8.70435 486.008 8.29184 486.022 7.87792C486.02 7.473 486.101 7.07191 486.259 6.69899C486.418 6.32606 486.651 5.9891 486.944 5.70854C487.237 5.42798 487.584 5.20969 487.965 5.06692C488.345 4.92415 488.751 4.85987 489.157 4.87799C489.556 4.86587 489.952 4.93522 490.323 5.08177C490.694 5.22831 491.03 5.44894 491.312 5.73005C491.594 6.01115 491.814 6.34676 491.961 6.71618C492.107 7.08559 492.176 7.48097 492.163 7.87792ZM490.908 30.0053C490.62 33.1206 490.496 36.2488 490.535 39.3771V85.6376C490.499 88.7658 490.623 91.8938 490.908 95.0094H487.272C487.556 91.8938 487.681 88.7658 487.645 85.6376V39.3771C487.684 36.2488 487.559 33.1206 487.272 30.0053H490.908Z" fill="#25271C"/>
<path d="M520.783 0C520.493 3.11718 520.366 6.24733 520.404 9.37767V85.6373C520.369 88.7657 520.496 91.8938 520.783 95.0092H517.141C517.428 91.8938 517.555 88.7657 517.52 85.6373V9.37767C517.558 6.24733 517.431 3.11718 517.141 0L520.783 0Z" fill="#25271C"/>
<path d="M598.978 85.6373C598.944 88.7657 599.071 91.8938 599.358 95.0092L596.095 95.1371V84.8815C596.104 81.7476 596.313 78.6174 596.719 75.5097H596.468C592.832 88.6373 583.294 96.2592 569.862 96.2592C552.287 96.2592 540.863 82.8874 540.863 62.2542C540.863 42.1268 552.538 28.6272 569.862 28.6272C583.165 28.6272 592.703 36.5049 596.346 49.5045H596.719C596.346 47.7604 596.095 42.3768 596.095 37.6269V9.37767C596.132 6.24733 596.006 3.11718 595.715 0L599.358 0C599.068 3.11718 598.941 6.24733 598.978 9.37767V85.6373ZM596.095 62.2542C596.095 43.3826 585.804 31.255 569.862 31.255C553.793 31.255 543.753 43.2547 543.753 62.2542C543.753 81.3816 553.793 93.6488 569.862 93.6488C586.055 93.6371 596.095 81.6316 596.095 62.2542Z" fill="#25271C"/>
<path d="M621.078 61.504V62.1319C621.078 81.1314 632.128 93.6369 648.945 93.6369C655.599 93.6369 661.997 91.759 666.766 88.2591C668.682 86.8521 670.376 85.1667 671.791 83.2593L673.799 85.1313C672.363 86.7881 670.763 88.2975 669.025 89.637C663.771 93.8869 656.603 96.2589 648.945 96.2589C630.744 96.2589 618.194 82.3814 618.194 62.1319C618.194 41.1266 629.489 28.377 647.964 28.377C665.534 28.377 675.451 39.5046 675.451 59.2541V61.504H621.078ZM672.544 59.0041C672.544 40.9813 663.754 31.0048 647.818 31.0048C632.128 31.0048 622.21 41.5045 621.206 59.0041H672.544Z" fill="#25271C"/>
<path d="M697.014 46.0044C700.405 35.7547 708.811 28.877 718.728 28.877C722.622 28.877 726.258 29.5048 728.652 30.7548L727.648 33.5047C724.564 32.1474 721.224 31.4654 717.853 31.5048C708.064 31.5048 699.658 39.7546 697.423 51.5043V85.6371C697.388 88.7655 697.515 91.8935 697.802 95.009H694.16C694.447 91.8935 694.574 88.7655 694.539 85.6371V39.3767C694.577 36.2483 694.45 33.1201 694.16 30.0048H697.423V34.8826C697.46 38.6015 697.252 42.3187 696.798 46.0102L697.014 46.0044Z" fill="#25271C"/>
<path d="M737.682 81.6321C739.447 84.3879 741.651 86.8386 744.208 88.8877C748.23 92.1376 753.874 93.6376 760.651 93.6376C773.832 93.6376 781.111 88.4052 781.111 78.5217C781.111 69.894 776.219 66.272 760.027 63.0163C745.089 60.0164 739.188 55.2665 739.188 46.3946C739.188 35.767 747.728 28.7672 760.529 28.7672C764.841 28.7241 769.115 29.5754 773.079 31.2671C776.21 32.646 779.028 34.6437 781.362 37.1391L779.354 39.2669C777.471 37.087 775.166 35.3074 772.577 34.0345C768.811 32.2649 764.693 31.3628 760.529 31.395C748.977 31.395 742.077 37.0228 742.077 46.4005C742.077 53.7724 747.22 57.5223 760.529 60.1501C777.976 63.6384 784 68.3999 784 78.2775C784 89.5273 775.244 96.3003 760.529 96.3003C753.121 96.3003 747.348 94.6783 742.702 91.1784C739.886 89.1239 737.464 86.5815 735.551 83.6728L737.682 81.6321Z" fill="#25271C"/>
</svg>
