<svg xmlns="http://www.w3.org/2000/svg" viewBox="0 0 1343.11 208.15"><defs><style>.cls-1{fill:#25271c;}</style></defs><g id="Layer_2" data-name="Layer 2"><g id="_Layer_" data-name="&lt;Layer&gt;"><path class="cls-1" d="M27.31,111.39c1.07,11.82,3,17.84,8,24.08,6.23,7.74,15.91,12,26.87,12,10.54,0,19.57-3.87,25.81-10.75,2.58-3,4.08-5.38,6.23-11.18l25.38,8.17c-5,10.32-7.74,14.41-13.12,19.78-11.18,11-26.23,16.56-44.3,16.56C24.08,170.09,0,144.71,0,104.5,0,64.72,23.87,38.7,60.64,38.7c25.16,0,44.94,12.48,53.54,34,4.09,10.32,5.59,18.06,6.24,32.68,0,.43,0,1.08.43,6ZM92.89,90.1c-1.5-9.46-4.08-15.27-9.46-20.65-5.8-5.8-13.12-8.6-23.22-8.6C43.44,60.85,31.18,72,28,90.1Z"/><path class="cls-1" d="M180.2,166c-1.29-5.8-2.15-8.38-6.45-19.13l-32.9-81.72c-2.37-5.59-5.81-13.54-10.11-22.57h32.9a113.47,113.47,0,0,0,5.38,20L191,124.93c1.29,3.44,3.23,9.89,4.52,14.41,1.5-4.73,3.22-10.11,4.73-14.41l21.93-62.36c3.44-10.1,4.52-14,5.38-20h32.68c-3,6-5.59,12-9.68,22.57L217.4,146.87c-4.3,11-5,12.9-6.45,19.13Z"/><path class="cls-1" d="M358.25,69.67c-9-2.58-13.55-3.44-19.14-3.44-10.75,0-18.92,3.44-24.95,10.53C308.79,83,306.64,88,305.35,98.27v39.78a227.08,227.08,0,0,0,1.5,27.95H276.1a234.69,234.69,0,0,0,1.51-27.95V70.53c0-13.12-.22-19.14-1.51-27.95h29.25V62.79c7.74-15.27,21.07-22.58,40.42-22.58,5.16,0,10.33.65,20,2.37Z"/><path class="cls-1" d="M382.33,69.24c-9.46-21.29-9.68-21.93-12.26-26.66h32.69c1.07,6.23,4.3,16.34,8.17,25.15l26.23,61.07L461,68c5.16-13.12,6.88-18.49,8.17-25.37h32c-1.29,2.79-5.16,11.61-11.61,26.66l-49,115C433.72,200.62,421,208.15,401,208.15c-6.45,0-12.69-.65-22.58-2.58l5-24.52c6,2.59,10.1,3.66,15,3.66A18,18,0,0,0,415.23,174l7.31-16.56Z"/><path class="cls-1" d="M533.93,158.91a6.78,6.78,0,1,1-6.88-6.88A6.75,6.75,0,0,1,533.93,158.91Z"/><path class="cls-1" d="M576.51,85.15c6.23-22.58,22.58-35.91,45.58-35.91,30.11,0,49.67,22.79,49.67,58.27,0,34.84-19.78,58.06-49.67,58.06-22.57,0-39.13-13.54-45.37-35.69h-.64a105.36,105.36,0,0,1,1.07,15.48v18.06h-5.59a157.37,157.37,0,0,0,.65-16.12V16.13A154.63,154.63,0,0,0,571.56,0h6.24a154.63,154.63,0,0,0-.65,16.13V69a127.82,127.82,0,0,1-1.07,16.13Zm90.31,22.36c0-32.89-17.2-53.75-44.73-53.75s-44.94,20.64-44.94,53.75c0,32.69,17.63,53.55,44.94,53.55C649.62,161.06,666.82,140.41,666.82,107.51Z"/><path class="cls-1" d="M791.33,147.3a157.86,157.86,0,0,0,.64,16.12h-5.59v-9c0-4.94.22-11.18.65-16.13h-.43c-6,16.56-21.72,27.31-42.15,27.31-25.16,0-39.78-14.83-39.78-41.07V67.73A154.54,154.54,0,0,0,704,51.61h6.24a155.06,155.06,0,0,0-.64,16.12v55.48c0,24.73,12.25,37.85,35.26,37.85,24.73-.22,41.5-15.7,41.5-38.28v-55a155.06,155.06,0,0,0-.64-16.12H792a155.06,155.06,0,0,0-.64,16.12Z"/><path class="cls-1" d="M843.15,13.55A5,5,0,0,1,838,18.92a5.19,5.19,0,0,1-5.37-5.37A5.14,5.14,0,0,1,838,8.39,5,5,0,0,1,843.15,13.55ZM841,51.61a155.06,155.06,0,0,0-.64,16.12V147.3a157.86,157.86,0,0,0,.64,16.12h-6.23a157.86,157.86,0,0,0,.64-16.12V67.73a155.06,155.06,0,0,0-.64-16.12Z"/><path class="cls-1" d="M892.18,0a154.63,154.63,0,0,0-.65,16.13V147.3a157.37,157.37,0,0,0,.65,16.12h-6.24a157.37,157.37,0,0,0,.65-16.12V16.13A154.63,154.63,0,0,0,885.94,0Z"/><path class="cls-1" d="M1026.14,147.3a157.37,157.37,0,0,0,.65,16.12l-5.59.22V146a127.79,127.79,0,0,1,1.07-16.12h-.43c-6.23,22.58-22.57,35.69-45.58,35.69-30.11,0-49.68-23-49.68-58.49,0-34.62,20-57.84,49.68-57.84,22.79,0,39.13,13.55,45.37,35.91h.64c-.64-3-1.07-12.26-1.07-20.43V16.13A154.63,154.63,0,0,0,1020.55,0h6.24a154.63,154.63,0,0,0-.65,16.13Zm-4.94-40.22c0-32.46-17.63-53.32-44.94-53.32-27.53,0-44.73,20.64-44.73,53.32,0,32.9,17.2,54,44.73,54C1004,161.06,1021.2,140.41,1021.2,107.08Z"/><path class="cls-1" d="M1064,105.79v1.08c0,32.68,18.93,54.19,47.74,54.19,11.4,0,22.36-3.23,30.53-9.25a40.81,40.81,0,0,0,8.61-8.6l3.44,3.22a56.43,56.43,0,0,1-8.18,7.75c-9,7.31-21.28,11.39-34.4,11.39-31.18,0-52.68-23.87-52.68-58.7,0-36.13,19.35-58.06,51-58.06,30.1,0,47.09,19.14,47.09,53.11v3.87Zm88.17-4.3c0-31-15.06-48.16-42.36-48.16-26.88,0-43.87,18.06-45.59,48.16Z"/><path class="cls-1" d="M1194.09,79.13c5.81-17.63,20.21-29.46,37.2-29.46,6.67,0,12.9,1.08,17,3.23l-1.72,4.73a40.34,40.34,0,0,0-16.78-3.44c-16.77,0-31.17,14.19-35,34.4V147.3a157.37,157.37,0,0,0,.65,16.12h-6.24a157.37,157.37,0,0,0,.65-16.12V67.73a154.54,154.54,0,0,0-.65-16.12h5.59V60a145.57,145.57,0,0,1-1.07,19.14Z"/><path class="cls-1" d="M1263.76,140.41a51.71,51.71,0,0,0,11.18,12.48c6.89,5.59,16.56,8.17,28.17,8.17,22.58,0,35.05-9,35.05-26,0-14.84-8.38-21.07-36.12-26.67-25.59-5.16-35.7-13.33-35.7-28.59,0-18.28,14.63-30.32,36.56-30.32a53.23,53.23,0,0,1,21.5,4.3,43.34,43.34,0,0,1,14.19,10.1l-3.44,3.66a36.81,36.81,0,0,0-11.61-9A47.51,47.51,0,0,0,1302.9,54c-19.79,0-31.61,9.68-31.61,25.81,0,12.68,8.81,19.13,31.61,23.65,29.89,6,40.21,14.19,40.21,31.18,0,19.35-15,31-40.21,31-12.69,0-22.58-2.79-30.54-8.81a49.86,49.86,0,0,1-12.25-12.91Z"/></g></g></svg>